<svg xmlns="http://www.w3.org/2000/svg" xmlns:xlink="http://www.w3.org/1999/xlink" version="1.1" baseProfile="tiny" x="0px" y="0px" width="365px" height="60px" viewBox="0 0 365 60" xml:space="preserve"><style>.style0{fill:	#8A8C8E;}</style><g><path d="M10.021 30.472c1.756 0.6 3.37 0.9 4.73 0.902c4.42 0 7.385-3.164 7.385-8.342c0-6.033-3.57-8.992-10.705-8.992 c-0.445 0-0.902 0.047-1.408 0.047V30.472z M1.231 45.993h3.816V14.136H1.231v-0.703h13.02c8.387 0 12.71 3.27 12.71 9.15 c0 5.779-4.574 9.705-11.352 9.705c-1.766 0-3.619-0.305-5.584-0.91v14.619h3.623v0.715H1.231V45.993z"/><path d="M37.911 33.983v-2.357c0-3.268-1.209-4.832-3.914-4.832c-2.57 0-3.82 1.814-3.82 5.537v1.652H37.911z M30.177 40.52 c0 4.13 1.46 5.98 5.02 5.984c3.469 0 6.184-2.367 7.23-6.49h0.758c-1.199 4.678-4.268 7.336-8.191 7.34 c-5.021 0-9.391-4.467-9.391-10.496c0-6.225 3.871-10.748 8.594-10.748c4.52 0 8.29 3.46 8.65 8.586H30.177V40.519z"/><path d="M43.739 26.702h9.35v0.703h-2.863l5.977 14.119l3.463-8.391l-2.508-5.729h-3.219v-0.703h11.053v0.703h-3.414l5.93 14.12 l4.619-11.303c0.254-0.6 0.455-1.107 0.455-1.557c0-1.107-0.951-1.209-3.275-1.26v-0.703H76.3v0.703h-0.301 c-1.656 0-2.26 1.307-3.365 3.969l-6.484 15.684l-0.404 0.244l-5.623-13.01l-5.277 12.766l-0.404 0.244l-8.637-19.896h-2.064 V26.702z"/><path d="M85.218 29.013h1.658c6.631 0 9.848-2.311 9.848-7.283c0-5.477-2.514-7.594-8.088-7.594h-3.418V29.013z M76.327 45.99 h3.768V14.136h-3.768v-0.703H90.29c7.691 0 11.56 2.77 11.56 7.891c0 4.529-3.225 7.285-9.393 7.89 c5.824 0.85 7.83 3.07 8.44 8.488c0.553 5.18 0.31 8.29 3.17 8.287c0.643 0 1.201-0.096 1.799-0.34l0.311 0.65 c-1.518 0.502-2.969 0.756-4.477 0.756c-2.059 0-3.518-0.756-4.574-2.367c-1.453-2.264-1.355-5.477-1.908-9.346 c-0.604-4.367-2.666-5.578-8.34-5.578h-1.658v16.227h3.523v0.715H76.327V45.993z"/><path d="M118.622 33.983v-2.357c0-3.268-1.199-4.832-3.912-4.832c-2.572 0-3.818 1.814-3.818 5.537v1.652H118.622z M110.892 40.52 c0 4.13 1.45 5.98 5.02 5.984c3.473 0 6.176-2.367 7.23-6.49h0.76c-1.205 4.678-4.271 7.336-8.191 7.34 c-5.027 0-9.396-4.467-9.396-10.496c0-6.225 3.871-10.748 8.594-10.748c4.521 0 8.3 3.46 8.64 8.586h-12.658V40.519z"/><path d="M126.063 39.815h0.502c1.205 4.57 3.07 6.63 6.34 6.635c2.811 0 4.512-1.76 4.512-4.625 c0-2.41-1.701-3.818-4.869-3.818c-4.123 0-6.48-2.205-6.48-5.723c0-3.467 2.357-6.139 5.574-6.139c2.869 0 4.42 1.31 4.78 1.31 c0.402 0 0.598-0.305 0.598-0.857c0-0.145 0-0.301-0.049-0.494h0.807v5.875h-0.555c-0.756-3.469-2.51-5.186-5.473-5.186 c-2.463 0-4.119 1.617-4.119 3.678c0 0.9 0.34 1.71 0.9 2.312c1.256 1.26 3.32 1 5.73 1.35 c3.416 0.5 5.32 2.77 5.32 6.082c0 4.324-2.566 7.131-6.334 7.131c-3.51 0-5.023-1.904-5.621-1.904 c-0.604 0-0.854 0.404-0.854 1.408h-0.707V39.815z"/><path d="M153.792 33.983v-2.357c0-3.268-1.203-4.832-3.916-4.832c-2.564 0-3.818 1.814-3.818 5.537v1.652H153.792z M146.058 40.52 c0 4.13 1.46 5.98 5.02 5.984c3.471 0 6.184-2.367 7.236-6.49h0.76c-1.207 4.678-4.27 7.336-8.189 7.34 c-5.025 0-9.396-4.467-9.396-10.496c0-6.225 3.871-10.748 8.59-10.748c4.523 0 8.29 3.46 8.65 8.586h-12.664V40.519z"/><path d="M173.54 36.251c-0.551-0.053-1.055-0.053-1.508-0.053c-4.623 0-6.832 1.758-6.832 5.527c0 2.86 1.3 4.47 3.52 4.47 c1.912 0 3.828-1.16 4.824-3.168V36.251z M177.763 47.153c-2.109 0-3.564-1.16-4.02-3.17c-1.303 2.215-3.67 3.318-7.141 3.32 c-3.357 0-5.775-2.211-5.775-5.021c0-4.221 4.326-6.783 12.461-6.783h0.252v-5.07c0-2.469-1.055-3.633-3.863-3.633 c-2.717 0-4.324 1.717-4.324 2.473c0 0.4 1.4 0.8 1.4 2.215c0 1.443-0.855 2.354-2.154 2.35 c-1.408 0-2.318-0.949-2.318-2.354c0-2.816 2.967-5.377 7.484-5.377c2.209 0 4.02 0.6 5.63 1.76 c1.912 1.4 2.06 2.56 2.06 4.818v10.104c0 2.16 0.5 3.16 1.5 3.162c0.91 0 1.611-0.65 2.57-1.906l0.549 0.5 C180.679 46.3 179.42 47.15 177.76 47.15"/><path d="M181.679 45.993h2.869V27.405h-2.869v-0.703h2.418c2.105 0 3.67-0.203 4.666-0.598v5.217 c1.41-3.516 3.166-5.217 5.531-5.217c1.951 0 3.22 1.1 3.22 2.607c0 1.51-0.807 2.414-2.012 2.414s-2.266-0.951-2.266-2.113 c0-0.654 0.359-1.256 0.957-1.957c-0.203-0.053-0.396-0.1-0.598-0.1c-1.807 0-3.824 2.562-4.83 7.289v11.748h2.77v0.715h-9.854 V45.993z"/><path d="M207.731 47.302c-5.834 0-9.852-4.068-9.852-9.992c0-6.381 4.67-11.256 10.406-11.256c3.764 0 6.52 2.11 6.52 4.57 c0 1.15-1.15 2.258-2.404 2.258c-1.258 0-2.207-1.055-2.207-2.314c0-1.457 1.355-2.361 1.355-2.568 c0-0.395-1.256-1.404-3.215-1.404c-1.857 0-3.471 0.705-4.426 1.812c-1.453 1.658-1.555 3.725-1.555 6.584v1.561v1.652 c0 2.66 0.1 4.72 1.35 6.381c1.012 1.31 2.32 1.81 4.18 1.811c3.768 0 6.027-2.158 6.482-6.387h0.748 C214.655 44.59 211.8 47.3 207.73 47.3"/><path d="M216.118 45.993h2.861V14.136h-2.861v-0.703h2.412c1.705 0 3.164-0.301 4.672-1.207v18.346 c1.861-3.014 4.119-4.467 7.08-4.467c3.922 0 6.38 2.35 6.38 6.275v13.613h2.92v0.715h-9.9v-0.715h2.814V30.929 c0-2.674-0.5-3.873-2.764-3.873c-2.607 0-4.721 1.609-6.533 4.924v14.014h2.764v0.715h-9.848V45.993z"/><path d="M266.913 34.794V46.05h-0.656c-0.248-1.557-0.801-2.367-1.607-2.367c-0.746 0-1.604 0.707-2.906 1.56 c-1.561 1.059-3.17 2.166-6.182 2.166c-3.672 0-7.441-1.861-10.457-5.33c-2.855-3.318-4.166-6.883-4.166-11.311 c0-5.064 1.611-9.697 4.422-12.963c2.816-3.266 6.529-5.07 10.4-5.07c3.166 0 4.98 1.21 6.78 2.26 c0.955 0.55 1.65 1.15 2.36 1.152c0.85 0 1.303-0.703 1.352-2.014h0.656v9.951h-0.656c-0.646-6.43-5.17-10.654-10.15-10.654 c-6.477 0-9.598 5.686-9.598 17.139c0 5.43 0.76 9.24 1.86 11.307c1.662 3.07 4.57 4.83 7.24 4.83 c3.211 0 6.625-1.965 8.941-5.484c1.1-1.652 1.5-3.717 1.703-6.43H266.913z" class="style0"/><path d="M282.845 33.983v-2.357c0-3.268-1.213-4.832-3.92-4.832c-2.566 0-3.818 1.814-3.818 5.537v1.652H282.845z M275.106 40.519c0 4.13 1.46 5.98 5.03 5.984c3.459 0 6.176-2.367 7.23-6.49h0.754c-1.207 4.678-4.271 7.336-8.191 7.34 c-5.02 0-9.395-4.467-9.395-10.496c0-6.225 3.871-10.748 8.592-10.748c4.525 0 8.29 3.46 8.64 8.586h-12.66V40.519z" class="style0"/><path d="M289.118 45.993h2.869V27.405h-2.869v-0.703h2.414c2.111 0 3.672-0.203 4.672-0.598v4.467 c1.859-3.014 4.123-4.467 7.082-4.467c3.92 0 6.38 2.35 6.38 6.275v13.613h2.916v0.715h-9.893v-0.715h2.811V30.929 c0-2.674-0.502-3.873-2.762-3.873c-2.613 0-4.73 1.609-6.537 4.924v14.014h2.764v0.715h-9.85V45.993z" class="style0"/><path d="M322.085 46.247c1.658 0 2.965-1.004 3.568-2.76h0.746c-0.746 2.459-2.559 3.814-5.072 3.81 c-1.662 0-3.121-0.551-4.119-1.508c-1.006-0.951-1.102-2.055-1.102-3.367v-0.998V27.405h-3.469v-0.703 c3.965 0 5.975-2.061 6.682-6.682h0.604v6.682h5.576v0.703h-5.576v15.781C319.923 45.3 320.43 46.25 322.08 46.25" class="style0"/><path d="M339.921 33.983v-2.357c0-3.268-1.211-4.832-3.918-4.832c-2.568 0-3.82 1.814-3.82 5.537v1.652H339.921z M332.183 40.519c0 4.13 1.45 5.98 5.03 5.984c3.459 0 6.176-2.367 7.234-6.49h0.754c-1.207 4.678-4.275 7.336-8.195 7.34 c-5.021 0-9.396-4.467-9.396-10.496c0-6.225 3.873-10.748 8.6-10.748c4.514 0 8.28 3.46 8.64 8.586h-12.66V40.519z" class="style0"/><path d="M346.194 45.993h2.869V27.405h-2.869v-0.703h2.416c2.109 0 3.668-0.203 4.67-0.598v5.217 c1.41-3.516 3.166-5.217 5.527-5.217c1.959 0 3.22 1.1 3.22 2.607c0 1.51-0.811 2.414-2.014 2.41 c-1.207 0-2.256-0.951-2.256-2.113c0-0.654 0.346-1.256 0.949-1.957c-0.203-0.053-0.398-0.1-0.604-0.1 c-1.807 0-3.818 2.562-4.824 7.289v11.748h2.768v0.715h-9.854V45.993z" class="style0"/></g></svg>