<svg width="100" height="22" viewBox="0 0 100 22" xmlns="http://www.w3.org/2000/svg"><title>Amuse, White</title><path d="M10.697 0l9.267 21.615h-3.746l-1.295-3.227H4.683l-1.295 3.227H0L9.05 0h1.647zM5.88 15.398h7.872l-2.824-6.82c-.564-1.345-1.13-2.762-1.13-2.762s-.53 1.417-1.095 2.762l-2.824 6.82zm63.866 3.512l2.29-1.613c.866 1.243 2.16 1.814 3.755 1.814 1.695 0 2.46-.57 2.46-1.51 0-1.143-1.03-1.31-3.39-1.984-2.06-.57-4.117-1.546-4.117-4.335 0-2.822 2.224-4.167 4.98-4.167 2.227 0 3.79.94 4.85 2.117l-1.958 1.95c-.665-.773-1.63-1.378-2.89-1.378-1.263 0-1.96.47-1.96 1.31 0 1.076.863 1.31 3.057 1.883 2.192.57 4.584 1.445 4.584 4.436 0 2.42-1.462 4.404-5.415 4.404-3.19 0-5.314-1.412-6.244-2.924zm23.43.067c1.83 0 3.156-.74 3.954-1.512l1.96 2.084c-1.296 1.31-3.09 2.284-5.88 2.284-4.783 0-7.873-3.126-7.873-7.36 0-4.2 3.255-7.36 7.44-7.36 4.752 0 7.44 3.562 7.21 8.503h-11.23c.4 2.05 1.862 3.36 4.42 3.36zm3.42-5.713c-.297-1.916-1.46-3.328-3.785-3.328-2.158 0-3.653 1.21-4.052 3.328h7.84zM61.98 20.026c-.977 1.37-2.315 2.12-4.757 1.95-2.81-.197-5.04-2.472-5.04-6.2V7.434h3.354v8.25c0 1.8 1.443 3.26 3.22 3.26 1.78 0 3.223-1.46 3.223-3.26v-8.25h3.353v14.112H61.98v-1.52zM42.21 7.072c2.973.28 5.042 2.4 5.042 5.99v8.553h-3.355v-8.25c0-1.8-1.442-3.26-3.22-3.26-1.777 0-3.217 1.454-3.222 3.25v8.26H34.1v-8.25c0-1.8-1.44-3.26-3.22-3.26-1.78 0-3.22 1.46-3.22 3.26v8.25h-3.355V7.503h3.354v1.52c.975-1.37 2.17-2.194 4.754-1.95 1.81.17 3.28 1.025 4.157 2.476v-.005c1.85-2.112 3.057-2.716 5.64-2.473z" fill="#FFF" fill-rule="evenodd"/></svg>