<svg width="114" height="28" viewBox="0 0 114 28" xmlns="http://www.w3.org/2000/svg"><title>Channel Branding / Logos / Broadly</title><path d="M15.6 3.513c1.8.802 2.8 2.007 2.8 3.512 0 1.606-1 2.81-2.7 3.513-1 .4-2.2.5-4.1.602 2.7.4 4 .602 5.1 1.104 1.9.903 3 2.308 3 4.114 0 3.413-3.4 5.52-8.9 5.52H0v-.3c1.3-.1 1.8-.302 2.2-.804.4-.602.5-1.104.5-3.813V7.528c0-2.71-.1-3.312-.5-3.814-.4-.502-.9-.702-2.2-.803v-.3h7.6v-.1c4.2 0 6.4.2 8 1.003zm15.9 3.412c1.5 0 2.6 1.104 2.6 2.51 0 1.404-1 2.407-2.2 2.407-.5 0-1-.2-1.4-.5-.2-.202-.2-.202-.8-1.005-.3-.402-.6-.602-.9-.602-.4 0-.7.2-.9.602-.4.803-.5 1.505-.5 4.014v3.614c0 2.91.3 3.312 2.3 3.412v.3H20v-.3c2-.1 2.3-.5 2.3-3.412v-4.717c0-1.706-.1-2.408-.6-3.01-.4-.502-.9-.803-1.9-.803v-.3c3.1-.704 4.1-1.005 7.4-2.21v4.417c1.1-3.11 2.5-4.415 4.3-4.415zm18.4 7.828c0 4.215-3.5 7.527-8 7.527s-8-3.312-8-7.628c0-4.315 3.5-7.627 8-7.627 2.1-.1 3.9.602 5.4 1.907 1.8 1.505 2.6 3.312 2.6 5.82zm13.3 7.426c-1.6 0-2.6-.904-2.9-2.71-1.4 1.906-2.9 2.71-5.2 2.71-2.4 0-4.1-1.305-4.1-3.212 0-1.606 1-2.61 4-3.914 1.5-.602 3.3-1.305 5.3-1.807v-1.505c0-1.907-.1-2.81-.4-3.312-.3-.502-.7-.702-1.3-.702-.8 0-1.6.4-2 1.104-.3.5-.3.702-.5 2.51-.2 1.805-1.4 3.01-3.1 3.01-1.2 0-2-.804-2-2.008s.8-2.208 2.5-3.21c2.2-1.306 5.7-2.21 8.2-2.21 1.1 0 2 .2 2.6.804.8.702 1.1 1.505 1.1 3.21v6.725c0 1.104 0 1.505.2 1.807.2.4.6.602 1.1.602.4 0 .6-.1 1.1-.402l.2.2c-2 1.607-3.3 2.31-4.8 2.31zm10 0c-3 0-5.3-2.81-5.3-6.725 0-4.717 3.5-8.53 7.8-8.53.7 0 1 .1 1.8.4V6.223c0-1.706-.1-2.408-.6-3.01-.4-.603-.9-.803-1.9-.803v-.302C77.6 1.606 80.7.703 82.7.1v16.258c0 2.81.3 3.312 2.2 3.513v.1c-2.8.704-4 1.105-7.3 2.21v-2.31c-1.4 1.607-2.8 2.31-4.4 2.31zM92.2 0v18.165c0 2.91.2 3.312 2.1 3.412v.3h-9.4v-.3c1.9-.1 2.2-.502 2.2-3.412V6.222c0-1.706-.1-2.408-.6-3.01-.4-.603-.9-.803-1.9-.803l-.1-.403c2.7-.502 6-1.505 7.7-2.007zm14.6 10.237c0-1.606-.5-2.31-1.8-2.61v-.3h6.6v.3c-1.5.2-2.8 1.807-4.8 5.72l-5.1 10.338C100.2 26.595 98.6 28 96.5 28c-2 0-3.4-1.204-3.4-2.91 0-1.506 1.1-2.51 2.6-2.51 1 0 1.6.402 2.4 1.406.6.803.9 1.003 1.4 1.003.5 0 1.2-.503 1.6-1.105.3-.4.3-.5.9-1.605l-5.8-11.742c-1-2.208-1.5-2.61-3-2.71v-.3h9.5v.3c-.9 0-1.3.4-1.3 1.305 0 .5.2 1.304.6 2.107l2.8 5.22c1.7-3.313 2-4.517 2-6.223zm4.4 11.942c-1.6 0-2.8-1.305-2.8-2.81 0-1.506 1.3-2.81 2.8-2.81 1.6.1 2.8 1.304 2.8 2.91 0 1.505-1.3 2.71-2.8 2.71zM76.1 7.325c-1.8 0-2.8 2.61-2.8 7.326 0 4.015.7 5.72 2.5 5.72.7 0 1.1-.2 1.8-1.003V8.93c0-1.004-.5-1.606-1.5-1.606zM56.8 17.563c0 1.706.6 2.71 1.7 2.71s1.7-.803 1.7-2.208v-4.517c-2.6.803-3.4 1.807-3.4 4.015zm-46.6 3.914c2.4 0 3.4-1.606 3.4-5.018 0-1.908-.4-3.313-1-4.016-.7-.802-1.5-1.103-3.3-1.103h-.9v7.026c0 2.61.3 3.11 1.8 3.11zm1.8-11.44c.5-.804.7-1.707.7-3.112 0-1.606-.3-2.61-.9-3.312-.6-.602-1.3-.803-2.8-.803h-.7v8.23h.8c1.7 0 2.4-.2 2.9-1.004zm27.5 4.515c0 3.312.3 5.52.8 6.323.4.602.9.903 1.6.903.7 0 1.4-.402 1.7-1.205.4-.802.7-3.11.7-6.02 0-3.313-.3-5.52-.8-6.424-.4-.603-.9-.904-1.6-.904-.7.1-1.3.502-1.7 1.304-.4.803-.7 3.112-.7 6.022z" fill-rule="nonzero" fill="#FFF"/></svg>