<svg width="118" height="22" viewBox="0 0 118 22" xmlns="http://www.w3.org/2000/svg"><title>Channel Branding / Logos / Creators</title><path d="M22.32 5.705h3.442V7.1h.057c.7-1.022 1.413-1.927 3.355-1.927h.314v3.664c-3.414.144-3.414 2.846-3.414 3.78v8.866H22.32V5.705zm48.626 3.362h-1.843V5.705h1.843V.445H74.7v5.26h2.258v3.348H74.7v12.415h-3.754v-12.4zM97.98 5.705h3.44V7.1h.057c.7-1.022 1.414-1.927 3.356-1.927h.315v3.664c-3.414.144-3.414 2.846-3.414 3.78v8.866H97.98V5.705zM113.9 10c-.256-1.25-1.098-1.364-1.498-1.364-.928 0-1.442.704-1.442 1.365 0 .907.642 1.108 2.656 1.77 1.942.602 4.384 1.536 4.384 4.712 0 3.55-2.8 5.518-5.484 5.518-1.556 0-3.47-.546-4.684-2.07-.957-1.192-1.1-2.442-1.185-3.405h3.84c.173.704.516 2.012 2.058 2.012 1.214 0 1.7-.934 1.7-1.595 0-1.164-.843-1.45-3.528-2.357-1.785-.603-3.5-1.94-3.5-4.526 0-3.076 2.743-4.887 5.256-4.887 2.342 0 4.97 1.71 5.113 4.828H113.9zM5.827 20.52C2.228 18.623 0 14.93 0 10.878 0 4.87 4.855 0 10.81 0c3.285 0 6.34 1.466 8.412 4.038l.2.244-2.77 2.774-.244-.33c-1.3-1.783-3.398-2.846-5.598-2.846-3.827 0-6.954 3.132-6.94 6.998 0 2.53 1.357 4.87 3.57 6.107L5.826 20.52zm10.868-5.877l2.756 2.787-.2.245c-2.056 2.586-5.14 4.08-8.44 4.08-1.056 0-2.113-.157-3.127-.46L9.31 17.72c.486.1.986.158 1.5.158 2.228 0 4.327-1.092 5.64-2.903l.244-.33zM62.55 5.705h3.455v15.763h-3.57v-8.205c-.13-3.09-2.4-4.64-4.57-4.64-3.07 0-4.656 2.672-4.656 5.028 0 2.674 1.97 4.858 4.655 4.858 1.042 0 2-.345 2.756-.934v3.434c-1.1.604-2.384.963-3.555.963-4.04 0-7.626-3.232-7.626-8.49 0-4.83 3.498-8.32 7.853-8.32 3.2 0 5.084 2.298 5.2 2.528h.056V5.705zm28.474.546c2.485 1.41 4.213 4.067 4.213 7.3 0 5.174-3.942 8.436-8.297 8.436-4.656 0-8.354-3.866-8.354-8.378 0-4.77 3.87-8.435 8.354-8.435.785 0 1.556.1 2.285.316l-1.47 3.232c-.258-.057-.544-.086-.815-.086-1.942 0-4.598 1.68-4.598 4.972 0 2.99 2.227 4.915 4.598 4.915 2.727 0 4.54-2.386 4.54-4.886 0-1.696-.77-3.133-1.884-4.024l1.428-3.362zm-52.338 5.605v.03h4.599c-.514-2.3-2.256-3.292-4.17-3.292-1.313 0-3.14.517-4.07 2.544-.07.158-.142.316-.2.502-.057.186-.114.36-.157.56-.2.99-.27 2.5.4 3.822.072.144.115.244.186.316.643 1.006 1.942 2.127 3.84 2.127 1.33 0 2.4-.46 3.13-1.308h4.17c-1.13 2.558-3.914 4.77-7.3 4.77-4.768 0-8.267-3.75-8.267-8.348 0-4.47 3.284-8.48 8.254-8.48 5.14 0 8.11 4.24 8.11 8.22 0 .59-.07 1.122-.156 1.567H36.87s-.485-1.538.086-3.032h1.728z" fill="#FFF" fill-rule="evenodd"/></svg>