<svg xmlns="http://www.w3.org/2000/svg" width="109" height="22" viewBox="0 0 109 22"><path fill="#FFF" d="M.035 10.343c.069-.45.12-.884.19-1.335C.572 6.96 1.472 5.174 2.858 3.63c.485-.556 1.005-1.11 1.61-1.527A12.066 12.066 0 0 1 7.155.682C8.487.179 9.873-.081 11.31.022c2.598.174 4.936.99 6.893 2.741.364.312.676.694 1.005 1.041.086.104.173.208.277.364-1.16.937-2.321 1.856-3.482 2.776-2.84-3.123-6.512-2.654-8.66-1.163-2.321 1.613-3.256 4.701-2.252 7.424.953 2.55 3.516 4.25 6.461 4.007 2.945-.243 4.763-2.342 5.058-3.66h-4.937v-3.99h6.166c1.005 0 2.027.018 3.032 0 .207 0 .173.122.173.244 0 1.023.017 2.046 0 3.07v4.908c0 .122.034.226.052.365-.018.052-.052.138-.052.225 0 .902-.018 1.821-.018 2.723v.209h-.9c-.884 0-1.75.017-2.633.034-.173 0-.208-.052-.208-.208v-1.335c-.173.12-.312.225-.433.312a10.563 10.563 0 0 1-4.313 1.752c-1.628.26-3.221.156-4.798-.313-2.2-.659-3.983-1.908-5.404-3.694C1.195 16.414.485 14.766.156 12.98c-.07-.4-.104-.816-.156-1.232.035-.503.035-.954.035-1.405zm51.598 3.348c1.265 2.237 2.512 4.475 3.794 6.747.156-.416.294-.763.433-1.127l.675-1.77c.208-.554.416-1.127.641-1.682.225-.607.468-1.197.693-1.786.537-1.44 1.074-2.863 1.61-4.302.382-1.006.728-2.03 1.11-3.018a431.362 431.362 0 0 1 1.645-4.267l.623-1.561c.052-.14.139-.191.26-.191 1.109 0 2.2 0 3.308-.018.364 0 .33 0 .433.347.122.4.295.78.45 1.163.4 1.023.78 2.064 1.179 3.087.346.902.692 1.787 1.039 2.689.623 1.613 1.247 3.226 1.853 4.839.295.78.537 1.596.832 2.376.45 1.197.935 2.394 1.385 3.59.295.764.572 1.545.866 2.325.018.07.052.122.104.226-.104.017-.19.034-.294.034h-4.313c-.173 0-.243-.052-.312-.208-.45-1.075-.9-2.15-1.351-3.209-.07-.156-.156-.208-.312-.208-1.593 0-3.187.017-4.78 0-.52 0-1.022-.017-1.542-.035-.156 0-.242.052-.294.209-.416 1.092-.849 2.185-1.265 3.278-.052.121-.086.19-.242.19-2.668-.017-5.335-.017-8.02-.017-.363 0-.745.018-1.108 0-.07 0-.156-.07-.19-.121A523.366 523.366 0 0 1 48.29 16.9a160.88 160.88 0 0 0-1.281-2.463c-.035-.07-.139-.156-.19-.156-.59-.018-1.179 0-1.82 0v7.146c-1.143-.035-2.234-.052-3.308-.087-.277 0-.554 0-.848.018-.174 0-.243-.052-.243-.226 0-1.231 0-2.463.017-3.694 0-1.232.035-2.464.035-3.678V9.926c-.017-.988-.052-1.96-.035-2.948 0-1.093.052-2.185.07-3.278.017-.92 0-1.839 0-2.793h.675c.59 0 1.178-.017 1.767 0 .849 0 1.697.018 2.546.018.71 0 1.42-.018 2.148-.018.675 0 1.35-.034 2.026 0 2.443.156 4.313 1.284 5.508 3.435.988 1.769 1.074 3.642.347 5.516-.71 1.82-2.027 3.087-3.863 3.78a.25.25 0 0 1-.121.036c0-.035-.017-.035-.087.017zm-6.564-3.625h.398c1.23-.018 2.442-.018 3.672-.035.19 0 .399-.035.59-.104 1.073-.347 1.818-1.266 1.749-2.567a2.464 2.464 0 0 0-2.321-2.377c-1.3-.052-2.599-.017-3.915-.017-.173 0-.208.07-.208.208.017.26.035.538.035.798v4.094zm17.65 3.781h4.243c-.71-2.047-1.385-4.076-2.113-6.158-.71 2.082-1.42 4.094-2.13 6.158zm28.995-9.713c-1.178.954-2.321 1.873-3.482 2.81-1.264-1.353-2.736-2.255-4.607-2.325a6.502 6.502 0 0 0-4.192 1.25c-2.39 1.751-3.083 4.96-2.044 7.51 1.109 2.723 3.932 4.215 6.842 3.781 2.668-.399 4.434-2.463 4.608-3.608h-4.885V9.545h7.621c.485 0 .97.018 1.473 0 .225 0 .277.052.277.278-.018 1.405 0 2.81 0 4.197 0 1.666-.018 3.313-.018 4.979v2.116c0 .034 0 .07-.017.156h-3.724V19.71c-.675.624-1.42 1.006-2.182 1.353a9.71 9.71 0 0 1-4.296.902c-2.823-.035-5.3-1.006-7.379-2.966-1.177-1.11-2.026-2.446-2.65-3.955-.64-1.561-.866-3.174-.727-4.84.173-2.133.831-4.093 2.165-5.776.398-.503.78-1.023 1.23-1.457 1.004-.954 2.182-1.665 3.481-2.202 1.923-.798 3.88-.902 5.907-.556 2.355.4 4.364 1.457 6.01 3.192.173.226.364.468.589.729zm16.714 4.856v1.735c0 .59-.034 1.162-.052 1.752v.225c.018.382.018.382-.363.4h-.918c-.52 0-1.022.034-1.542.034-.849 0-1.697-.035-2.546-.018-1.195.018-2.39.053-3.585.087h-.676v3.938h10.237v1.023c0 .59.017 1.18.017 1.787v1.144c0 .243-.173.226-.33.226-.882 0-1.748-.017-2.632 0-.537 0-1.091.052-1.628.052-.26 0-.502-.052-.762-.052-.347-.017-.71 0-1.057 0-.19 0-.363-.017-.554-.017-1.195 0-2.373-.018-3.568-.018h-4.226c-.018-.139-.018-.243-.018-.347-.017-1.543-.017-3.087-.017-4.63-.017-2.412-.035-4.806-.035-7.217 0-1.058.018-2.116.018-3.191 0-.746-.035-1.475-.018-2.22 0-.885.035-1.787.052-2.672 0-.156.07-.225.226-.225.883.017 1.784.017 2.667.035.866 0 1.732.017 2.598.017 1.143 0 2.27.017 3.412.017.243 0 .503-.017.745-.017l3.1.052h2.01v4.128c-3.395.035-6.825-.173-10.254.035V8.66c0 .138 0 .243.19.243h2.408c1.42 0 2.84.017 4.26.017.382 0 .763-.052 1.144-.052.33 0 .658.035.97.052.052 0 .121.035.156 0 .208-.156.38-.087.571.07zm-67.88 12.35c-.121 0-.19.018-.277.018h-4.348c-.155 0-.242-.052-.294-.191-.45-1.076-.918-2.151-1.368-3.244-.07-.156-.139-.208-.295-.19-1.593 0-3.204.017-4.798 0-.52 0-1.039-.018-1.559-.035-.155 0-.207.052-.26.19-.415 1.093-.848 2.186-1.264 3.279-.052.121-.086.208-.242.208h-4.608c-.034 0-.086 0-.156-.017.139-.417.295-.833.45-1.25.434-1.144.901-2.289 1.334-3.434.434-1.144.815-2.29 1.248-3.434.26-.677.537-1.336.796-2.012.572-1.51 1.109-3.036 1.68-4.545.433-1.144.884-2.272 1.334-3.417.312-.78.606-1.578.918-2.359.07-.173.173-.225.381-.208.503.035 1.022.017 1.542.017.554 0 1.126-.034 1.68-.052.104 0 .208 0 .312.018.052.017.138.087.138.121-.069.347.139.642.243.937.312.832.64 1.665.97 2.498.467 1.214.935 2.445 1.42 3.66.658 1.7 1.334 3.417 1.975 5.134.311.815.537 1.648.848 2.463.416 1.127.884 2.255 1.317 3.382.277.746.554 1.475.831 2.22-.035.087 0 .14.052.243zm-7.621-7.493c-.71-2.064-1.386-4.076-2.079-6.088h-.052c-.692 2.012-1.403 4.024-2.113 6.07 1.42.018 2.806.018 4.244.018z"/></svg>