<svg width="38" height="24" viewBox="0 0 38 24" xmlns="http://www.w3.org/2000/svg"><title>Channel Branding / Logos / i-D</title><path d="M37.825 12.167c0 5.813-4.8 11.462-11.07 11.65H18.56V.57H26.766c6.29.378 11.058 5.912 11.058 11.597zm-11.067 7.16c3.98-.174 6.662-3.487 6.662-7.12 0-3.64-2.678-6.947-6.655-7.133H23.046V19.34h2.92l.792-.013zm-11.274-5.063h-6.86v-5.49h6.86v5.49zM2.75 5.782c-1.615 0-2.925-1.333-2.925-2.98 0-1.648 1.31-2.98 2.924-2.98 1.613 0 2.923 1.332 2.923 2.98 0 1.647-1.31 2.98-2.924 2.98zm2.675 18.04H.065V7.78h5.36v16.04z" fill="#FFF" fill-rule="evenodd"/></svg>