<svg xmlns="http://www.w3.org/2000/svg" width="162" height="14" viewBox="0 0 162 14"><path fill="#FFF" fill-rule="evenodd" d="M68.06 13.822V.33h4.958V13.82H68.06zM94.547.33v13.49h-4.942V6.37l-3.513 7.452h-2.8L79.78 6.37v7.452h-4.94V.332h6.513l3.34 6.69 3.34-6.69h6.515zm6.814 9.575v3.917h-4.973V.33h10.144c4.604 0 5.898 2.03 5.898 4.533v.4c0 2.484-1.327 4.642-5.897 4.642h-5.17zm0-3.772h4.074c.95 0 1.294-.454 1.294-1.034v-.037c0-.6-.345-1.034-1.294-1.034h-4.073v2.103zM136.558 14c-7.96 0-8.545-4.08-8.545-6.764v-.544c0-2.72.502-6.692 8.545-6.692h.606c7.78 0 8.267 3.736 8.283 5.604v.253h-5.105c-.08-.326-.425-1.867-3.554-1.867-3.03 0-3.62 1.487-3.62 2.81v.218c0 1.288.656 2.956 3.637 2.956 3.194 0 3.49-1.686 3.538-1.995h5.106v.38c0 1.85-.518 5.64-8.283 5.64h-.606zm15.195-9.52h-5.26V.253H162v4.225h-5.258v9.267h-4.99V4.48zM19.367 13.758V.266h4.957V13.76h-4.957zm15 .24c-7.962 0-8.545-4.08-8.545-6.763V6.69c0-2.72.5-6.69 8.544-6.69h.606c7.78 0 8.267 3.735 8.283 5.603v.253H38.15c-.082-.326-.426-1.867-3.554-1.867-3.03 0-3.62 1.486-3.62 2.81v.217c0 1.288.655 2.956 3.636 2.956 3.194 0 3.49-1.686 3.538-1.995h5.105v.38c0 1.85-.518 5.64-8.283 5.64h-.606zM57.877.267V3.84h-8.25v1.324h8.25V8.68h-8.25v1.47h8.25v3.608h-13.14V.266H57.88zm64.7.064l5.646 13.49h-4.704l-.78-1.867h-6.58l-.78 1.868h-4.704L116.322.33h6.255zm-4.862 7.905h3.47l-1.736-4.123-1.735 4.123zM18.605.265L12.99 13.76H5.616L0 .266h5.644l3.66 8.832L12.96.266h5.644z"/></svg>