<svg width="20" height="20" viewBox="0 0 20 20" xmlns="http://www.w3.org/2000/svg">
  <title>
    16A7D272-35F0-4C7B-A332-71716E9F47A8
  </title>
  <g fill="#FFF" fill-rule="evenodd">
    <path d="M10 1.804c2.67 0 2.985.01 4.04.06.974.043 1.504.206 1.856.343.466.18.8.398 1.15.748.35.35.566.683.747 1.15.137.35.3.88.344 1.855.048 1.055.06 1.37.06 4.04s-.012 2.985-.06 4.04c-.044.974-.207 1.504-.344 1.856-.18.466-.398.8-.748 1.15-.35.35-.683.566-1.15.747-.35.137-.88.3-1.855.344-1.054.048-1.37.06-4.04.06s-2.986-.012-4.04-.06c-.974-.044-1.504-.207-1.856-.344-.466-.18-.8-.398-1.15-.748-.35-.35-.566-.683-.747-1.15-.137-.35-.3-.88-.344-1.855-.048-1.055-.06-1.37-.06-4.04s.012-2.985.06-4.04c.044-.974.207-1.504.344-1.856.18-.466.398-.8.748-1.15.35-.35.683-.566 1.15-.747.35-.137.88-.3 1.855-.344 1.055-.048 1.37-.06 4.04-.06m0-1.8c-2.715 0-3.055.012-4.122.06-1.064.05-1.79.218-2.426.465-.658.255-1.215.597-1.77 1.153-.557.56-.9 1.12-1.154 1.778C.28 4.09.112 4.818.063 5.88.015 6.944.003 7.284.003 10s.012 3.055.06 4.122c.05 1.064.218 1.79.465 2.426.255.658.597 1.215 1.153 1.77.56.557 1.12.9 1.778 1.154.636.247 1.362.416 2.426.465 1.067.048 1.407.06 4.12.06s3.057-.012 4.124-.06c1.064-.05 1.79-.218 2.426-.465.656-.255 1.213-.597 1.77-1.153.555-.56.9-1.12 1.152-1.778.247-.636.416-1.362.465-2.426.048-1.067.06-1.407.06-4.12s-.012-3.057-.06-4.124c-.05-1.064-.22-1.79-.465-2.426-.255-.656-.597-1.213-1.153-1.77-.56-.555-1.114-.9-1.772-1.152C15.91.28 15.188.11 14.12.062 13.056.015 12.716.002 10 .002"/>
    <path d="M10 4.866c-2.835 0-5.134 2.3-5.134 5.134 0 2.835 2.3 5.134 5.134 5.134 2.835 0 5.134-2.3 5.134-5.134 0-2.835-2.3-5.134-5.134-5.134zm0 8.466c-1.84 0-3.332-1.492-3.332-3.332 0-1.84 1.492-3.332 3.332-3.332 1.84 0 3.332 1.492 3.332 3.332 0 1.84-1.492 3.332-3.332 3.332zm6.536-8.668c0 .662-.537 1.2-1.2 1.2-.662 0-1.2-.538-1.2-1.2 0-.663.538-1.2 1.2-1.2.663 0 1.2.537 1.2 1.2"/>
  </g>
</svg>
