<svg width="162" height="16" viewBox="0 0 162 16" xmlns="http://www.w3.org/2000/svg"><title>Channel Branding / Logos / Motherboard</title><path d="M152.903.247c5.15 0 9.097 2.282 9.097 7.98 0 4.606-3.215 7.526-7.713 7.526h-13.29l-2.44-4.977h-.102v4.977H127.77l-.508-1.933h-4.213l-.448 1.933H116.7l1.3-3.78c-1.417 2.57-4.258 4.027-7.527 4.027-3.766 0-6.963-1.93-8.07-5.277.042.24.065.488.065.753 0 3.187-2.93 4.277-5.617 4.277H83.116l-2.442-4.977h-.102v4.977h-5.453V.247h6.736c3.46 0 6.39 1.48 6.39 5.388 0 2.344-.895 3.332-2.97 4.03v.124c.284.225.63.472.936.925l3.05 4.608V.247h6.492c2.972 0 6.004.72 6.004 4.298 0 1.357-.672 2.694-2.015 3.126v.124c1.18.422 2.053 1.163 2.464 2.214-.14-.615-.217-1.27-.217-1.967 0-4.873 3.826-8.04 8.486-8.04s8.487 3.167 8.487 8.04c0 .525-.044 1.025-.125 1.503L122.03.247h6.168l4.802 13.6V.248h6.736c3.46 0 6.39 1.48 6.39 5.388 0 2.344-.895 3.332-2.97 4.03v.124c.284.225.63.472.936.925l3.133 4.73V.247h5.678zM69.01 9.98v1.51h4.9v4.205H63.353V.305h10.395V4.51H69.01v1.47h4.326v4H69.01zM56.617 5.47V.247h5.378v15.506h-5.378v-5.388h-3.423v5.388h-5.38V5.278L44.7 5.14v10.613h-5.582V5.14l-2.942.14c.295.84.457 1.764.457 2.76 0 4.978-3.81 7.96-8.495 7.96-3.913 0-7.214-2.08-8.196-5.666l.882 5.42h-5.4L14.67 7.26h-.103c-.102.514-.204 1.05-.367 1.542l-2.22 6.95H8.72l-1.997-6.56c-.163-.657-.305-1.274-.346-1.932h-.183c-.04.617-.082 1.254-.143 1.87l-.65 6.623H0L2.486.247H8.23l2.12 8.144h.142c.102-.678.204-1.398.387-2.056L12.61.247h5.685l1.364 8.37c-.013-.19-.02-.38-.02-.576 0-4.873 3.83-8.04 8.495-8.04 3.575 0 6.658 1.86 7.904 4.923V.247h17.153V5.47h3.423zm96.53 5.635c1.853 0 3.277-.863 3.277-2.9 0-2.18-1.24-3.105-3.276-3.105h-.346v6.005h.347zm-14.305-3.99c.917 0 1.833-.143 1.833-1.295 0-1.193-.834-1.337-1.79-1.337h-.428v2.633h.386zm-14.794 3.024h2.24l-.652-2.736c-.163-.66-.265-1.337-.367-1.995h-.203l-1.018 4.73zm-13.573.965c1.69 0 2.87-1.213 2.87-2.98 0-1.647-1.1-3.025-2.87-3.025s-2.87 1.378-2.87 3.024c0 1.768 1.18 2.98 2.87 2.98zm-15.412.946c.916 0 2.24-.02 2.24-1.294 0-1.296-1.425-1.275-2.32-1.275h-.55v2.57h.63zm-.63-8.06v2.22h.508c.814 0 1.73-.082 1.73-1.15 0-1.153-1.038-1.07-1.85-1.07h-.388zM80.958 7.116c.916 0 1.83-.144 1.83-1.296 0-1.193-.833-1.337-1.79-1.337h-.427v2.633h.388zm-52.823 3.99c1.69 0 2.873-1.214 2.873-2.982 0-1.646-1.1-3.024-2.873-3.024-1.772 0-2.872 1.378-2.872 3.024 0 1.768 1.182 2.98 2.872 2.98z" fill="#FFF" fill-rule="evenodd"/></svg>