<svg width="155" height="20" viewBox="0 0 155 20" xmlns="http://www.w3.org/2000/svg"><title>Channel Branding / Logos / Munchies</title><path d="M29.86 11.91c0 .453.036.853.107 1.19-.065-.03-.128-.064-.19-.1l-.05-.028c-.444-.262-.828-.63-1.014-1.123-.194-.517-.232-1.092-.232-1.64V.287l1.38 1.697v9.926zm11.634-9.926v10.124c0 2.513-.78 4.493-2.32 5.886-1.505 1.363-3.61 2.054-6.263 2.054-1.654 0-3.124-.31-4.37-.918-1.29-.63-2.292-1.558-2.98-2.758.03.028.063.054.094.082.445.378.95.708 1.504.98 1.246.607 2.716.915 4.373.915 2.652 0 4.76-.69 6.264-2.053 1.54-1.393 2.32-3.373 2.32-5.888V.285l1.38 1.698zm-15.407 13.95c-.535-.456-.983-.995-1.334-1.614-.614-1.076-.925-2.353-.925-3.794V.286h3.98v9.925c0 .903.13 1.622.387 2.136.242.48.643.89 1.193 1.213.02.01.04.023.058.033.59.336 1.29.505 2.085.505.884 0 1.638-.162 2.242-.482.594-.315 1.015-.73 1.285-1.266.277-.55.417-1.34.417-2.35V.286h3.967V10.41c0 2.312-.704 4.123-2.095 5.382-1.377 1.247-3.334 1.878-5.814 1.878-1.555 0-2.926-.285-4.078-.848-.504-.247-.96-.544-1.365-.888zM96.81 1.984v4.494h-1.378V.286l1.38 1.697zm-4.637 17.853L90.79 18.14h4.642v-6.895h6.207v1.696h-4.83v6.897h-4.637zm11.52 0l-1.38-1.698h4.636V.285l1.38 1.697v17.854h-4.636zm-8.934-9.272v6.895h-3.97V.286h3.97v6.87h7.552V.287h3.965V17.46h-3.965v-6.895H94.76zm24.23-8.582v17.853h-4.64l-1.38-1.697h4.64V.285l1.38 1.697zm-6.02 15.477V.286h3.966V17.46h-3.967zm23.694-8.546v3.398h-7.016v1.154h-1.38V11.21h7.015V7.216l1.38 1.697zm.312-6.93v3.4h-7.328v1.154h-1.38V4.28h7.328V.286l1.38 1.697zM125.01 19.836l-1.382-1.698h12.13v-3.995l1.38 1.697v3.995h-12.13zm10.075-5.692v3.315h-11.457V.286h11.295V3.6h-7.328v3.617h7.015v3.313h-7.015v3.615h7.49zM85.968 3.715V8.46l-1.007-.582-.628-.365c-1.44-.83-2.968-1.443-4.644-1.486-1.593-.04-3.27.47-4.274 1.787-.994 1.303-1.168 3.185-.515 4.682-1.955-1.314-2.283-4.307-1-6.196.923-1.355 2.553-1.96 4.134-1.973.88-.007 1.758.127 2.593.406.81.27 1.583.655 2.322 1.083l.63.366 1.008.58V2.018l1.38 1.697zm-1.195 8.077l1.38 1.697v4.592l-.587.308c-1.483.783-3.046 1.372-4.716 1.563-1.71.194-3.474.118-5.13-.375-1.323-.394-2.523-1.072-3.584-1.956-.01-.003-.06-.045-.19-.156-.034-.036-.06-.062-.076-.082-.43-.452-.97-1.092-1.286-1.62l.01.01c2.53 2.36 6.206 2.942 9.513 2.392 1.435-.238 2.795-.795 4.078-1.473l.588-.308v-4.593zm-13.725 3.482c-.557-.523-1.04-1.123-1.442-1.8-.804-1.35-1.212-2.85-1.212-4.455 0-1.715.42-3.28 1.248-4.65.83-1.372 1.984-2.442 3.434-3.184C74.514.45 76.154.076 77.948.076c.948 0 1.887.11 2.796.327.904.216 1.893.588 2.936 1.107l.235.117v3.965l-.63-.364c-.964-.56-1.863-.967-2.674-1.214-.8-.242-1.65-.366-2.523-.366-1.077 0-2.06.226-2.922.672-.85.44-1.52 1.067-1.99 1.866-.47.802-.71 1.71-.71 2.693 0 1.008.237 1.922.705 2.715.31.527.71.978 1.194 1.348.24.185.505.352.787.495.863.438 1.852.66 2.937.66.84 0 1.654-.123 2.415-.365.777-.248 1.78-.705 2.977-1.358l.62-.34v3.938l-.226.118c-1.073.567-2.075.975-2.98 1.216-.913.24-1.984.364-3.188.364-1.765 0-3.367-.36-4.763-1.073-.704-.36-1.335-.802-1.893-1.322h-.002zM4.703 18.14V8.403l1.38 1.542v9.89H1.447L.064 18.14h4.64zM17.808.285l1.38 1.697v17.853H14.55l-1.382-1.697h4.64V.285zm-4.64 17.174V6.643l-4.556 5.104L4.03 6.644V17.46H.064V.286h3.43l5.118 6.2 5.116-6.2h3.407V17.46h-3.967zm-4.102-5.208l.045-.05 3.386-3.79v2.304c-1.14 1.273-2.353 2.634-2.353 2.634l-.045.05-1.032-1.148zm55.37-10.27v17.854h-3.37L59.65 18.14h3.405V.285l1.38 1.697zM50.03 6.62V17.46h-3.897V.286h3.36l8.992 10.665V.287h3.897V17.46h-3.3L50.03 6.618zm-3.897 11.52h4.57V8.48l1.38 1.66v9.698h-4.568l-1.382-1.697zm102.248-5.217v.04c-.002.13-.028.23-.15.34-1.783-.85-3.52-1.866-4.966-3.23-.002-.002-.003-.002-.003-.004-.222-.27-.422-.558-.584-.87 1.003.895 2.224 1.423 3.408 2.017.514.257 1.023.52 1.527.794.35.192.76.467.77.914zm-5.12-4.116c-.315-.26-.588-.537-.82-.826-.69-.852-1.04-1.855-1.04-2.98 0-1.5.564-2.714 1.676-3.608 1.084-.872 2.518-1.314 4.27-1.314 1.635 0 3.233.42 4.748 1.243l.22.12v3.808l-.638-.388c-1.6-.976-3.028-1.47-4.24-1.47-.696 0-1.237.13-1.608.388-.33.23-.483.508-.483.883 0 .457.35.91 1.042 1.346l.01.008c.05.033.15.092.338.19.358.183 1.032.51 2.277 1.086 1.386.66 2.405 1.41 3.03 2.23.184.242.343.5.474.772.327.674.492 1.432.492 2.268 0 1.526-.554 2.776-1.646 3.717-1.073.926-2.472 1.393-4.156 1.393-1.073 0-2.012-.12-2.792-.362-.443-.137-.92-.33-1.424-.58-.376-.185-.77-.403-1.176-.648l-.204-.124v-4.253l.69.577c1.643 1.377 3.195 2.077 4.615 2.077.673 0 1.214-.144 1.61-.425.353-.253.523-.558.53-.964v-.022c0-.596-.333-1.08-1.014-1.477-.666-.367-1.54-.815-2.6-1.33-.862-.397-1.592-.844-2.18-1.336zm9.727-6.953l1.38 1.71v4.59l-1.64-1c-.67-.408-1.365-.776-2.105-1.036-.786-.276-1.68-.466-2.51-.287-.125.027-.248.065-.365.12-.292-.14-.528-.258-.706-.35-.208-.108-.26-.143-.267-.146l-.013-.007-.01-.006-.007-.006c-.534-.336-.725-.618-.725-.77 0-.114.013-.2.192-.323.175-.123.53-.267 1.226-.267 1.088 0 2.398.46 3.892 1.37l.637.39 1.022.623V1.85zm-.41 7.258c1.156.878 1.926 2.25 2.292 3.653.415 1.59.17 3.376-.782 4.728-1.948 2.766-5.92 3.083-8.874 2.035-.8-.284-1.554-.68-2.283-1.115-.152-.09-.34-.168-.45-.314-.103-.14-.196-.29-.287-.442-.185-.306-.356-.628-.583-.905.77.455 1.573.866 2.422 1.15.76.254 1.56.38 2.36.428 1.563.095 3.164-.094 4.537-.906 1.226-.726 2.18-1.877 2.552-3.272.418-1.558.208-3.336-.667-4.7-.076-.116-.155-.23-.24-.34z" fill="#FFF" fill-rule="evenodd"/></svg>