<svg width="107" height="26" viewBox="0 0 107 26" xmlns="http://www.w3.org/2000/svg"><title>Channel Branding / Logos / Noisey</title><g fill="none" fill-rule="evenodd"><path fill="#FFF" d="M90.518 25.958h5.605l3.102-7.562L106.838.553h-5.375L98.18 8.86l-1.66 4.37-1.66-4.37L91.58.553H86.2l7.614 17.843-3.296 7.562M73.38 8.09h8.01c-.106-2.563-1.37-3.792-3.787-3.792-2.38 0-3.968 1.157-4.222 3.792m-.033 3.867c.14 2.707 1.91 3.9 4.365 3.9 2.562.036 3.467-.976 3.755-2.276h5.12c-.506 3.797-2.67 6.574-8.768 6.574-6.096 0-9.67-3.537-9.67-10.076C68.15 3.54 71.725 0 77.567 0c5.918 0 9.092 3.576 9.092 10.078v1.88h-13.31M61.635 13.725c-.036-1.59-1.553-1.517-4.185-1.768-3.717-.326-7.83-.688-7.83-5.636 0-4.803 4.547-6.32 8.263-6.32 5.447 0 8.18 1.986 8.557 6.31h-5.092c-.52-1.52-1.084-2.022-3.465-2.085-1.515-.038-3.032.434-3.032 1.988.04 1.336 1.518 1.336 3.86 1.59 3.827.397 8.05.503 8.05 5.887 0 4.875-4.657 6.464-8.986 6.464-5.81 0-8.164-2.28-8.595-6.575h5.148c.373 1.686 1.467 2.385 3.446 2.35 2.13-.04 3.897-.545 3.86-2.205M41.995 19.695h4.907V.553h-4.907"/><path d="M29.984 6.6h.008V0h-.008c-3.718 0-6.966 2.015-8.714 5.012l5.705 3.316c.606-1.033 1.725-1.73 3.01-1.73" fill="#DC3F2F"/><path d="M26.484 10.087c0-.644.178-1.246.48-1.764l-5.702-3.318c-.87 1.493-1.37 3.23-1.37 5.082 0 1.848.496 3.58 1.362 5.07l5.703-3.32c-.3-.515-.473-1.11-.473-1.75" fill="#D94A8D"/><path d="M29.962 13.57c-1.288 0-2.41-.7-3.014-1.74l-5.7 3.312c1.745 3 4.994 5.02 8.714 5.02h.01v-6.59h-.01" fill="#384F91"/><path d="M29.982 13.58v6.592c3.722-.003 6.972-2.025 8.716-5.03l-5.703-3.312c-.602 1.043-1.725 1.746-3.013 1.75" fill="#2DB7DF"/><path d="M38.69 5.005l-5.704 3.323c.302.517.477 1.118.477 1.76 0 .636-.172 1.23-.468 1.745l5.703 3.323c.862-1.49 1.356-3.22 1.356-5.068 0-1.853-.497-3.59-1.364-5.083" fill="#54B046"/><path d="M32.987 8.336l5.706-3.316C36.946 2.02 33.7.003 29.983 0v6.6c1.282.002 2.4.7 3.004 1.736" fill="#EFE845"/><path d="M4.582 2.51C5.845.96 8.298 0 10.535 0c4.44 0 7.397 2.167 7.397 6.754v12.894h-4.907V7.478c0-1.99-1.337-2.854-3.356-2.854-2.49 0-4.332 1.697-4.8 3.18v11.844H0V.476h4.582V2.51" fill="#FFF"/></g></svg>