<svg xmlns="http://www.w3.org/2000/svg" width="94" height="30" viewBox="0 0 94 30">
    <path fill="#FFF" fill-rule="nonzero" d="M39.743 22.72c-4.446 0-7.012-3.632-7.078-8.083V7.6h3.102v7.036c.056 2.735 1.231 4.97 3.976 4.97 2.754 0 3.939-2.245 3.976-5.008V7.601h3.102v6.989c-.047 4.48-2.613 8.13-7.078 8.13zm-12.652-7.696c-.066-2.745-1.25-4.716-3.986-4.706-2.754.009-3.938 1.942-3.976 4.706v7.384h-3.102V0h3.102v8.714s.752-1.5 3.967-1.509c4.446 0 7.022 3.367 7.097 7.819v7.384H27.09v-7.384zm-23.18-.5v-4.178H0v-3.14h3.91V3.281h3.093l.01 3.923h6.222v3.14H7.012l.01 4.17c.056 2.744 1.861 4.819 4.606 4.81h1.607v3.102h-1.598c-4.437.01-7.651-3.452-7.727-7.903zm64.126-7.319c4.446-.01 7.031 3.348 7.088 7.819v7.384h-3.102v-7.384c-.066-2.735-1.25-4.716-3.986-4.706-2.754.009-3.929 1.952-3.967 4.706v7.384h-3.102v-7.384c-.047-2.754-1.231-4.716-3.985-4.706-2.745.009-3.92 2.074-3.967 4.828v7.262h-3.093V7.601h2.914v1.18c1.166-.878 2.473-1.576 4.146-1.576 4.305 0 5.536 3.113 5.536 3.113s1.09-3.103 5.518-3.113zm18.086 0c4.267 0 7.877 3.47 7.877 7.743 0 4.272-3.61 7.743-7.877 7.743-1.805 0-3.61-.622-4.926-1.66V30h-2.951V7.601h2.773v1.264c1.316-1.037 3.299-1.66 5.104-1.66zm-.15 12.355c2.537 0 4.756-2.066 4.746-4.602 0-2.537-2.209-4.603-4.747-4.603s-4.747 2.056-4.747 4.603c0 2.536 2.21 4.602 4.747 4.602z"/>
</svg>
