<svg width="97" height="22" viewBox="0 0 97 22" xmlns="http://www.w3.org/2000/svg"><title>Channel Branding / Logos / Tonic</title><path d="M65.306.07l.313.378V21.69l-.314.38H61.8l-.31-.38L49.968 7.61v14.08l-.313.38h-3.76l-.312-.38V.45l.313-.378H49.4l.31.378 11.525 14.076V.448l.313-.378h3.758zm8.767 0l.313.378V21.69l-.313.38h-3.758l-.313-.38V.45l.313-.378h3.758zm-42.888 0c6.05 0 10.955 4.925 10.955 11 0 6.073-4.906 10.997-10.955 10.997-6.053 0-10.96-4.924-10.96-10.996 0-6.075 4.907-11 10.96-11zm57.6 4.4c-3.623 0-6.57 2.96-6.57 6.6 0 3.64 2.947 6.6 6.57 6.6 1.91 0 3.63-.823 4.826-2.127h.004l.482-.093L97 17.846v.5c-2.005 2.282-4.942 3.723-8.215 3.723-6.05 0-10.956-4.925-10.956-11 0-6.076 4.905-11 10.955-11 3.273 0 6.21 1.44 8.215 3.724v.5l-2.904 2.395-.482-.094h-.003c-1.195-1.304-2.916-2.126-4.825-2.126zM20.225.384v3.773l-.376.314h-7.17l-.377.315v16.91l-.31.375H8.232l-.307-.375V6.278l2.19-1.807H.377L0 4.158V.384L.377.07H19.85l.376.314zm10.96 17.282c3.622 0 6.57-2.96 6.57-6.595 0-3.64-2.948-6.598-6.57-6.598-3.626 0-6.575 2.96-6.575 6.6 0 3.635 2.95 6.594 6.575 6.594z" fill="#FFF" fill-rule="evenodd"/></svg>