<svg width="142" height="20" viewBox="0 0 142 20" xmlns="http://www.w3.org/2000/svg"><title>Channel Branding / Logos / VICELAND</title><path d="M0 .5h6.19l3.277 12.64L12.874.5h6.19l-6.502 19H6.398L0 .5zm19.942 19V.5h6.138v19h-6.138zM40.88 7.756c-.183-1.98-1.405-3.113-3.33-3.113-2.16 0-3.46 1.873-3.46 5.54 0 2.666.573 5.172 3.694 5.172 1.977 0 2.913-1.398 3.147-3.22h5.905C46.29 17.047 42.83 20 37.888 20c-6.19 0-9.935-3.852-9.935-10.026C27.953 3.826 32.063 0 37.29 0c5.722 0 8.92 2.876 9.415 7.757H40.88zM48.874 19.5V.5h15.267v4.434h-9.13v2.718h8.323v4.432h-8.322v2.982h9.493V19.5h-15.63zm18.3 0V.5h6.137v14.566h8.427V19.5H67.173zm48.577-8.63l-.234-4.326V.5h5.877v19h-5.747l-6.684-10.344.234 4.327V19.5h-5.878V.5h5.748l6.684 10.37zm8.25 8.63V.5h8.218c6.035 0 9.78 2.85 9.78 9.104 0 7.15-3.928 9.895-9.935 9.895h-8.063zm6.138-4.434h1.3c2.86 0 4.422-1.53 4.422-5.12 0-3.957-1.275-5.012-4.552-5.012h-1.17v10.132zM82.727 19.5l6.71-19h6.242l6.71 19h-6.113l-.728-2.508h-6.113l-.702 2.507h-6.008zm9.78-13.273l-1.9 6.807h3.876l-1.977-6.807z" fill="#FFF" fill-rule="evenodd"/></svg>