<svg width="122" height="24" viewBox="0 0 122 24" xmlns="http://www.w3.org/2000/svg"><title>Channel Branding / Logos / VICE Sports</title><path d="M8.168.202h4.388L9.383 23.797h-6.21L0 .202h4.793L6.48 16.82 8.168.202zM13.6 23.798V.202h4.726v23.596H13.6zm18.057-10.416v6.236c0 2.932-1.452 4.382-4.388 4.382h-2.904c-2.936 0-4.387-1.45-4.387-4.382V4.382C19.98 1.45 21.43 0 24.365 0h2.836c2.935 0 4.387 1.45 4.387 4.382V9.91h-4.66V4.888c0-.573-.27-.843-.842-.843h-.54c-.575 0-.844.27-.844.843v14.225c0 .573.27.842.843.842h.608c.573 0 .844-.27.844-.842v-5.73h4.657zM42.017.202v4.214h-4.05v5.292h3.88v4.213h-3.88v5.664h4.117v4.214H33.24V.202h8.777zM59.465 15.27v4.348c0 2.932-1.452 4.382-4.388 4.382h-2.633c-2.936 0-4.388-1.45-4.388-4.382v-5.022h4.624v4.584c0 .572.27.843.844.843h.44c.573 0 .843-.27.843-.843v-2.832c0-.74-.236-1.112-.81-1.516l-4.05-3c-1.452-1.046-1.89-2.023-1.89-3.708V4.382C48.056 1.45 49.506 0 52.443 0h2.565c2.935 0 4.387 1.45 4.387 4.382v4.315h-4.624V4.82c0-.573-.27-.842-.844-.842h-.372c-.574 0-.844.27-.844.843v2.225c0 .742.237 1.112.81 1.517l4.05 3c1.452 1.045 1.89 1.955 1.89 3.708zm38.877.404v8.123h-4.725v-8.09c0-.572-.27-.842-.844-.842h-1.18v8.932h-4.727V.202h7.055c2.937 0 4.388 1.45 4.388 4.383v4.55c0 2.022-.742 3.034-2.025 3.505 1.452.405 2.06 1.315 2.06 3.034zm3.78 8.124V4.416h-2.87V.203h10.464v4.213h-2.87v19.382h-4.724zM122 15.27v4.348c0 2.932-1.45 4.382-4.388 4.382h-2.632c-2.937 0-4.388-1.45-4.388-4.382v-5.022h4.624v4.584c0 .572.27.843.843.843h.438c.574 0 .844-.27.844-.843v-2.832c0-.74-.236-1.112-.81-1.516l-4.05-3c-1.45-1.046-1.89-2.023-1.89-3.708V4.382c0-2.933 1.45-4.382 4.388-4.382h2.565c2.936 0 4.387 1.45 4.387 4.382v4.315h-4.624V4.82c0-.573-.27-.842-.844-.842h-.37c-.574 0-.844.27-.844.843v2.225c0 .742.236 1.112.81 1.517l4.05 3c1.45 1.045 1.89 1.955 1.89 3.708zM92.74 4.315h-1.148v6.54h1.148c.573 0 .843-.27.843-.844V5.158c0-.572-.27-.842-.843-.842zM80.86 24h-3.038c-2.936 0-4.387-1.45-4.387-4.382V4.383C73.435 1.45 74.885 0 77.822 0h3.038c2.937 0 4.388 1.45 4.388 4.383v15.235c0 2.932-1.45 4.382-4.388 4.382zM79.68 4.045h-.676c-.574 0-.844.27-.844.842v14.226c0 .572.27.842.844.842h.675c.573 0 .842-.27.842-.842V4.887c0-.572-.27-.842-.843-.842zM65.605 23.798H60.88V.202h6.92c2.937 0 4.388 1.45 4.388 4.383v6.64c0 2.933-1.45 4.382-4.388 4.382h-2.194v8.19zm1.012-19.55h-1.012v7.314h1.012c.574 0 .844-.27.844-.843V5.09c0-.573-.27-.842-.844-.842z" fill="#FFF" fill-rule="evenodd"/></svg>