<svg width="89" height="28" viewBox="0 0 89 28" xmlns="http://www.w3.org/2000/svg"><title>Channel Branding / Logos / VICE</title><path d="M88.986 4.14c.097.38-.33.747-.552 1.027-1.863 2.333-3.93 5.093-6.41 6.865.178.928.083 2.16-.24 2.84.65.828 1.34 1.612 1.74 2.684-.528 2.8-1.756 4.972-3.718 6.392-1.917 1.384-4.506 1.93-7.443 2.604-5.68 1.305-15.023 2.592-19.236-.79-4.562 2.668-13.78 3.02-18.048-.158-3.034 3.827-15 3.49-13.22-4.103-2.218 1.676-5.5 3.985-8.63 5.29C9.603 28.297 2.728 28.13 3.415 23c.083-.61.342-.955.634-1.5-1.062-1.846-1.733-3.128-2.375-4.734C1.058 15.226.12 13.473.01 11.322c-.23-4.576 3.348-7.477 6.89-8.84C8.706 1.787 10.174.78 11.964.275c2.675-.76 4.968.707 5.145 3.156 3.11-.92 6.897-1.935 11.004-1.34 3.27-2.536 9.656-.97 13.853.234.95.273 2.226.978 2.93.948.594-.024 1.67-.83 2.293-1.105C50.135.867 53.985-.52 58.194.195c.797.134 1.526.555 2.374.63.576.053 1.28-.127 1.9-.156C72.305.19 80.495 2.82 88.987 4.14zM61.44 3.826c-1.005.12-1.718 1.216-2.375 1.578.048-.005.093-.013.078-.08.12-.538.35-.967.396-1.577-5.27-1.85-10.396.854-14.17 2.92-3.017 1.65-5.71 3.588-7.6 5.522.684-1.16 1.41-2.308 2.218-3.392.82-1.1 1.733-2.097 2.455-3.077-1.578-.413-3.16-.848-4.752-1.186-2.26-.48-5.407-1.275-7.28-.236-.543.3-.987 1.04-1.505 1.105-.43.055-1.135-.257-1.663-.315-1.934-.215-3.714-.036-5.462.315-1.637.327-5.098.907-5.542 2.445-.284.988.35 1.945.238 2.922-.108.96-1.034 2.232-1.504 2.998-.575.94-1.16 1.772-2.138 2.21-.592-2.94.052-5.556.555-8.05.31-1.536.934-3.11.396-4.656-1.51-.21-2.78.982-4.276 1.577-2.808 1.12-5.935 2.14-6.332 5.366-.224 1.817.46 2.972.95 4.262 1.047 2.772 2.342 5.118 3.88 7.26-.42.768-1.407.968-1.506 2.05.447.63 1.377.714 2.296.71 2.656-.005 4.834-1.337 6.807-2.445 4.296-2.41 7.182-6.12 10.213-9.627.532-.617.97-1.36 1.663-1.736.682 3.117-.642 4.784-1.584 7.338-.363.984-1.508 4.064-.95 5.523.612 1.606 5.823 1.676 7.204.635.696-.525.973-1.71 1.347-2.447.477-.948.89-1.766 1.266-2.604.02 3.457 2.597 4.472 5.382 5.208 5.92 1.56 11.89-1.227 15.12-3.155-.404 2.56.594 2.818 2.613 3.235 5.22 1.074 10.477-.165 14.723-1.185 3.894-.934 7.024-1.594 7.6-5.446-.622-.536-2.18-.47-3.244-.313-3.14.458-6.18 2.04-10.37 1.735-.765-.055-2.416-.32-2.535-.788-.183-.728 1.125-1.238 2.22-1.42 3.14-.53 7.682.005 10.21-.95 1.214-.456 2.68-1.774 2.532-3.234-.096-.986-1.387-1.502-2.612-1.577-3.464-.216-5.94 1.8-9.575 1.104.454-.572.536-1.515 1.106-1.972 2.66-.056 5.243.47 7.76.315 3.497-.218 5.47-1.687 7.124-3.63.177-.21.62-.435.475-.788-6.077-.922-14.36-3.363-21.85-2.447zM49.407 9.9c-.39 1.77-1.205 3.797-1.662 5.76 2.516.037 5.17-.475 7.757-.63.35-.466.522-1.11.713-1.736.52.732.884 2.102.396 3.156-3.928-.055-6.752 3.153-10.606 3.156-1.726.002-3.193-.987-2.376-2.92 1.154-2.725 4.016-4.63 5.78-6.785zm9.183-2.918c.74.84 2.36.804 3.324 1.42-1.3.334-2.94.332-4.117.788.278-.724.527-1.474.793-2.208z" fill="#FFF" fill-rule="evenodd"/></svg>