<svg width="149" height="22" viewBox="0 0 149 22" xmlns="http://www.w3.org/2000/svg"><title>Channel Branding / Logos / VICE News</title><path d="M69.288 3.29c.075.3-.26.578-.426.8-1.445 1.826-3.057 4.005-4.984 5.382.148.727.074 1.695-.185 2.235.5.65 1.037 1.266 1.352 2.104-.407 2.198-1.37 3.91-2.89 5.01-1.5 1.08-3.502 1.508-5.8 2.048-4.428 1.024-11.692 2.03-14.97-.615-3.56 2.086-10.73 2.365-14.046-.13-2.354 2.998-11.674 2.737-10.303-3.22-1.723 1.32-4.28 3.127-6.726 4.15-2.834 1.192-8.17 1.062-7.652-2.978.056-.484.26-.745.5-1.173-.833-1.453-1.352-2.458-1.852-3.724C.824 11.968.1 10.59.01 8.914-.178 5.32 2.62 3.05 5.363 1.97 6.772 1.43 7.92.627 9.31.236c2.075-.596 3.873.56 4.003 2.477 2.427-.727 5.373-1.527 8.56-1.062C24.41-.34 29.396.89 32.657 1.838c.74.205 1.74.764 2.28.745.462-.018 1.296-.65 1.778-.875C38.438.945 40.55.144 42.885.014c.778-.038 1.575 0 2.408.13.612.112 1.186.428 1.853.503.445.037 1-.093 1.483-.13C56.3.2 62.673 2.266 69.287 3.29zM64.86 5.06c0-.038 0-.056-.018-.094-3.984-.614-9.21-2.066-14.25-2.085-.926 0-1.852.038-2.78.15-.74.093-1.296.875-1.777 1.192v-.02c.092-.427.24-.762.278-1.246v-.02c-1.02-.353-1.946-.576-3.058-.558l.02-.11h-.038.018c-.407.185-.834.166-1.223.24-1.63.243-3.187.913-4.576 1.602-.76.354-1.483.763-2.15 1.117-2.334 1.285-4.428 2.83-5.892 4.34.538-.914 1.093-1.79 1.723-2.645.63-.857 1.353-1.64 1.91-2.42-1.224-.318-2.466-.67-3.707-.932-1.093-.242-2.464-.56-3.706-.577-.74-.02-1.426.093-1.964.39-.426.243-.76.82-1.167.876h-.13c-.333-.02-.797-.206-1.167-.243-.37-.037-.74-.056-1.112-.075-1.093-.018-2.13.112-3.15.317-1.278.26-3.965.706-4.317 1.917-.222.782.278 1.527.185 2.29-.092.763-.797 1.75-1.167 2.346-.222.372-.445.708-.723 1.024-.26.298-.574.54-.945.726-.463-2.31.037-4.357.426-6.312.24-1.21.723-2.438.315-3.648-1.167-.168-2.167.763-3.335 1.23-2.168.892-4.613 1.693-4.91 4.225-.167 1.434.352 2.328.74 3.352.817 2.177 1.817 4.02 3.02 5.696-.332.596-1.092.764-1.166 1.602.352.502 1.075.558 1.797.558 2.076 0 3.762-1.042 5.3-1.917 3.353-1.9 5.595-4.805 7.95-7.56.406-.485.758-1.062 1.296-1.36.537 2.44-.5 3.76-1.242 5.753-.278.764-1.167 3.184-.74 4.34.48 1.265 4.54 1.32 5.613.5.54-.408.76-1.34 1.057-1.917.37-.744.686-1.377.983-2.048.018 2.72 2.02 3.52 4.187 4.097 4.614 1.23 9.265-.97 11.766-2.477-.315 2.01.463 2.216 2.038 2.532 4.06.838 8.154-.13 11.47-.93 3.04-.727 5.467-1.248 5.91-4.283-.48-.428-1.703-.372-2.52-.242-2.444.354-4.816 1.6-8.077 1.36-.593-.038-1.872-.26-1.964-.615-.15-.577.87-.968 1.722-1.117 2.446-.41 5.985 0 7.95-.745.944-.354 2.093-1.397 1.963-2.532-.074-.783-1.075-1.174-2.038-1.23-2.706-.167-4.633 1.416-7.45.857.353-.447.427-1.192.872-1.545 2.074-.038 4.075.372 6.04.242 2.723-.168 4.26-1.322 5.54-2.85 0-.018.018-.018.037-.036.11-.112.352-.26.333-.484zM44.997 7.257c.222-.56.408-1.155.61-1.732.576.67 1.854.633 2.596 1.117-1.02.26-2.28.26-3.206.615zm-1.24 3.22c.406.578.684 1.658.314 2.477-3.057-.037-5.262 2.477-8.263 2.477-1.353 0-2.483-.78-1.853-2.29.908-2.14 3.13-3.63 4.502-5.325-.296 1.397-.945 2.98-1.297 4.525 1.963.018 4.02-.373 6.04-.503.278-.354.407-.856.556-1.36zm60.625-3.91c4.688 0 7.227 3.222 7.227 7.076v1.322h-9.933c.13 1.676 1.39 2.607 2.928 2.607 1.39 0 2.28-.41 2.742-1.527l4.095.373c-.723 3.22-3.298 5.027-7.023 5.027-4.503 0-7.71-2.737-7.71-7.225 0-4.45 3.3-7.652 7.672-7.652zm39.652 5.494c3.15.522 4.966 1.937 4.966 4.693 0 2.98-2.52 4.692-6.522 4.692-3.873 0-6.782-1.546-7.06-4.972l4.447-.055c.204 1.173 1.15 1.843 2.687 1.843 1.13 0 1.723-.41 1.723-.986 0-.54-.315-.912-1.297-1.08l-2.075-.316c-3.39-.54-5.188-1.64-5.188-4.525 0-2.793 2.427-4.785 6.355-4.785 4.077 0 6.467 1.787 6.745 4.748l-4.188.13c-.185-1.005-1.075-1.638-2.65-1.638-.963 0-1.537.372-1.537 1.005 0 .466.39.726.852.782l2.742.466zm-16.046 2.7l2.52-8.006h4.614l-4.447 14.15h-5.003l-2.057-8.006h-.13l-2.038 8.007h-5.002l-4.447-14.15h5.077l2.52 8.005h.11l2.057-8.006h4.058l2.057 8.006h.11zm-26.255-2.42h4.947c-.056-1.304-.87-2.346-2.39-2.346-1.65 0-2.372 1.042-2.557 2.346zm-11.99-.186V.982h5.004v19.923h-4.484L81.777 9.25v11.655H76.96V.982h4.928l7.856 11.172z" fill="#FFF" fill-rule="evenodd"/></svg>