<svg width="76" height="40" viewBox="0 0 76 40" xmlns="http://www.w3.org/2000/svg"><title>F07B043F-DD09-46DD-A66E-AA5BCA22027B</title><path d="M7.915 37.28l1.022-5.651h1.384l-1.713 8.145H7.2L5.486 31.63h1.385l1.022 5.652h.022zm12.933 2.494V31.63h1.408v8.145h-1.408zm13.167-8.145h2.089c1.453 0 2.225.79 2.225 2.46v3.226c0 1.67-.772 2.46-2.225 2.46h-2.089v-8.146zm2.906 5.855v-3.565c0-.858-.261-1.14-1.01-1.14h-.488v5.845h.488c.749 0 1.01-.283 1.01-1.14zm13.863-1.32v2.392h2.52v1.219h-3.927v-8.146h3.768v1.219h-2.36v2.098H52.6v1.218h-1.817zm13.955-2.448c0-1.15.68-2.087 2.157-2.087 1.475 0 2.156.936 2.156 2.087v4.197c0 1.15-.681 2.087-2.156 2.087-1.476 0-2.157-.936-2.157-2.087v-4.197zm2.905 4.163v-4.13c0-.609-.18-.902-.748-.902-.568 0-.75.293-.75.903v4.129c0 .61.182.902.75.902.567 0 .748-.293.748-.902zm7.873-33.411c-1.591 2.018-3.355 4.404-5.475 5.936.153.803.071 1.868-.205 2.456.555.716 1.144 1.394 1.488 2.321-.452 2.42-1.5 4.3-3.176 5.527-1.637 1.197-3.848 1.669-6.356 2.252-4.85 1.129-12.829 2.242-16.426-.683-3.896 2.307-11.768 2.612-15.412-.137-2.59 3.31-12.807 3.02-11.287-3.547-1.895 1.448-4.696 3.444-7.37 4.572-3.099 1.305-8.97 1.159-8.382-3.276.07-.528.291-.826.54-1.296-.906-1.598-1.479-2.706-2.027-4.095C.903 13.166.102 11.65.009 9.79c-.196-3.956 2.858-6.465 5.882-7.643C7.435 1.544 8.689.675 10.217.237c2.284-.657 4.243.611 4.393 2.73 2.656-.797 5.89-1.675 9.397-1.161 2.793-2.192 8.246-.837 11.83.204.81.236 1.901.845 2.5.82.51-.022 1.427-.717 1.96-.956C42.812.75 46.1-.449 49.694.17c.68.116 1.303.48 2.027.545.492.045 1.093-.11 1.623-.136 8.4-.414 15.392 1.862 22.644 3.002.083.33-.281.646-.471.888zm-25.08.204c.041-.004.08-.01.067-.069.103-.466.299-.836.338-1.364-4.498-1.6-8.876.74-12.098 2.524-2.577 1.428-4.877 3.104-6.49 4.777.583-1.003 1.202-1.996 1.893-2.934.7-.952 1.48-1.813 2.096-2.661-1.347-.356-2.698-.732-4.057-1.024-1.932-.415-4.619-1.103-6.219-.205-.463.26-.842.899-1.284.956-.366.048-.969-.222-1.42-.273-1.652-.185-3.171-.03-4.664.273-1.398.283-4.354.785-4.733 2.114-.242.855.298 1.683.203 2.527-.092.83-.882 1.93-1.284 2.593-.491.812-.991 1.532-1.825 1.91-.507-2.543.044-4.804.473-6.96.265-1.329.799-2.689.339-4.027-1.289-.18-2.375.85-3.65 1.364-2.399.97-5.07 1.852-5.408 4.641-.192 1.571.394 2.57.81 3.686.895 2.396 2.001 4.425 3.314 6.278-.358.663-1.2.836-1.286 1.772.382.546 1.176.617 1.961.615 2.268-.005 4.128-1.157 5.813-2.116 3.668-2.082 6.133-5.29 8.72-8.324.455-.534.83-1.176 1.421-1.501.581 2.696-.55 4.137-1.354 6.345-.31.852-1.287 3.515-.81 4.776.522 1.388 4.971 1.448 6.151.548.595-.453.831-1.478 1.15-2.115.408-.82.76-1.528 1.081-2.252.018 2.99 2.218 3.867 4.597 4.503 5.055 1.35 10.152-1.06 12.91-2.728-.345 2.215.507 2.437 2.231 2.798 4.458.928 8.947-.144 12.574-1.025 3.323-.808 5.997-1.38 6.49-4.71-.533-.464-1.862-.406-2.772-.271-2.68.395-5.277 1.764-8.855 1.5-.653-.048-2.064-.278-2.165-.681-.157-.63.96-1.071 1.895-1.228 2.682-.46 6.56.004 8.718-.82 1.038-.396 2.288-1.536 2.163-2.798-.082-.852-1.185-1.299-2.23-1.364-2.958-.186-5.073 1.556-8.177.955.388-.495.457-1.31.945-1.706 2.27-.048 4.476.408 6.624.273 2.988-.189 4.672-1.458 6.084-3.14.152-.18.53-.375.406-.68-5.189-.798-12.261-2.908-18.657-2.117-.859.105-1.468 1.052-2.028 1.365zm-9.666 8.87c2.149.031 4.415-.41 6.624-.545.299-.404.445-.96.609-1.501.443.633.754 1.817.338 2.729-3.355-.047-5.767 2.726-9.058 2.73-1.474.001-2.727-.855-2.028-2.525.985-2.358 3.429-4.004 4.934-5.869-.332 1.531-1.029 3.284-1.419 4.982zM52.87 7.267c-1.11.288-2.509.287-3.515.681.237-.626.45-1.275.677-1.91.632.727 2.015.696 2.838 1.229z" fill="#FFF" fill-rule="evenodd"/></svg>