<?xml version="1.0" encoding="UTF-8" standalone="no"?>
<svg width="186px" height="50px" viewBox="0 0 186 50" version="1.1" xmlns="http://www.w3.org/2000/svg" xmlns:xlink="http://www.w3.org/1999/xlink">
    <!-- Generator: sketchtool 40.3 (33839) - http://www.bohemiancoding.com/sketch -->
    <title>09F079B9-1DA2-46A6-92AB-6C64BAB59BE8</title>
    <desc>Created with sketchtool.</desc>
    <defs>
        <polygon id="path-1" points="0.00456621005 0.0159817352 0.00456621005 25.9787671 31.6197869 25.9787671 31.6197869 0.0159817352 0.00456621005 0.0159817352"></polygon>
    </defs>
    <g id="main" stroke="none" stroke-width="1" fill="none" fill-rule="evenodd">
        <g id="white-logos" transform="translate(-590.000000, -889.000000)">
            <g id="waypoint_logo_white" transform="translate(590.000000, 889.000000)">
                <g id="Group-3" transform="translate(0.000000, 9.360731)">
                    <mask id="mask-2" fill="white">
                        <use xlink:href="#path-1"></use>
                    </mask>
                    <g id="Clip-2"></g>
                    <path d="M13.1004566,22.1081431 C12.5645358,24.4900304 11.552207,25.9787671 9.22983257,25.9787671 C7.86027397,25.9787671 6.49071537,24.9069254 5.7761035,22.2272451 L0,0.31369863 L5.53789954,0.31369863 L9.28942161,16.1533486 L12.1477169,3.46978691 C12.7431507,0.790106545 14.1127854,0.0159817352 15.780137,0.0159817352 C17.5070015,0.0159817352 18.8170472,0.790106545 19.412481,3.46978691 L22.3302892,16.1533486 L26.0818113,0.31369863 L31.6197869,0.31369863 L25.7840944,22.2272451 C25.0695586,24.9069254 23.7595129,25.9787671 22.3898782,25.9787671 C20.0079909,25.9787671 19.0552511,24.4900304 18.5192542,22.1081431 L15.780137,9.66270928 L13.1004566,22.1081431" id="Fill-1" fill="#FFFFFF" mask="url(#mask-2)"></path>
                </g>
                <path d="M44.2072298,29.8611111 C48.2564688,29.8611111 51.531583,26.8242009 51.531583,22.3581431 C51.531583,18.0707002 48.3754947,14.855175 44.2072298,14.855175 C40.0984018,14.855175 36.8828767,18.0707002 36.8828767,22.3581431 C36.8828767,26.7646119 40.0984018,29.8611111 44.2072298,29.8611111 L44.2072298,29.8611111 Z M51.531583,33.0171233 C51.531583,33.0171233 48.8519026,35.3394977 44.2072298,35.3394977 C36.7637747,35.3394977 31.1662861,29.5633181 31.1662861,22.3581431 C31.1662861,15.2124049 36.8828767,9.37671233 44.2072298,9.37671233 C50.8170472,9.37671233 57.2480974,13.9618721 57.2480974,22.536758 L57.2480974,35.0417808 L51.531583,35.0417808 L51.531583,33.0171233 L51.531583,33.0171233 Z" id="Fill-4" fill="#FFFFFF"></path>
                <path d="M125.805175,29.8611111 C129.854642,29.8611111 133.129376,26.7646119 133.129376,22.3581431 C133.129376,17.9515982 129.854642,14.855175 125.805175,14.855175 C121.755708,14.855175 118.480974,17.9515982 118.480974,22.3581431 C118.480974,26.7646119 121.755708,29.8611111 125.805175,29.8611111 L125.805175,29.8611111 Z M125.805175,9.37671233 C132.950533,9.37671233 138.786149,15.2124049 138.786149,22.3581431 C138.786149,29.5633181 132.950533,35.3394977 125.805175,35.3394977 C118.599696,35.3394977 112.764079,29.5633181 112.764079,22.3581431 C112.764079,15.2124049 118.599696,9.37671233 125.805175,9.37671233 L125.805175,9.37671233 Z" id="Fill-5" fill="#FFFFFF"></path>
                <path d="M155.399543,21.3458143 L155.399543,35.0417808 L149.682648,35.0417808 L149.682648,21.3458143 C149.682648,12.5923135 155.339422,9.37671233 160.461187,9.37671233 C165.641553,9.37671233 171.298326,12.6518265 171.298326,21.3458143 L171.298326,35.0417808 L165.582192,35.0417808 L165.582192,21.3458143 C165.582192,16.9988584 163.497717,14.855175 160.461187,14.855175 C157.483257,14.855175 155.399543,16.9392694 155.399543,21.3458143" id="Fill-6" fill="#FFFFFF"></path>
                <path d="M183.971842,29.5818874 C180.875951,29.5818874 179.769406,27.8365297 179.769406,24.8591324 L179.769406,15.1222222 L184.716134,15.1222222 L184.716134,9.64277017 L179.769406,9.64277017 L179.769406,0.0621765601 L174.137747,1.77252664 L174.137747,24.8591324 C174.137747,32.7789193 178.910198,35.0613394 183.971842,35.0613394 L185.172755,35.0613394 L185.172755,29.5818874 L183.971842,29.5818874" id="Fill-7" fill="#FFFFFF"></path>
                <polyline id="Fill-8" fill="#FFFFFF" points="141.18417 11.6745814 141.18417 35.0613394 146.891933 35.0613394 146.891933 9.94619482 141.18417 11.6745814"></polyline>
                <path d="M97.4809741,29.8611111 C93.4315068,29.8611111 90.1567732,26.8242009 90.1567732,22.3581431 C90.1567732,18.0707002 93.3127854,14.855175 97.4809741,14.855175 C101.589802,14.855175 104.805175,18.0707002 104.805175,22.3581431 C104.805175,26.7646119 101.589802,29.8611111 97.4809741,29.8611111 L97.4809741,29.8611111 Z M97.4665145,9.37671233 C90.8569254,9.37671233 84.4109589,13.9618721 84.4109589,22.536758 L84.4109589,49.3368341 L90.1187215,47.6117199 L90.1187215,33.0171233 C90.1187215,33.0171233 92.8173516,35.3394977 97.4619482,35.3394977 C104.905632,35.3394977 110.505327,29.5633181 110.505327,22.3581431 C110.505327,15.2124049 104.790715,9.37671233 97.4665145,9.37671233 L97.4665145,9.37671233 Z" id="Fill-9" fill="#FFFFFF"></path>
                <path d="M75.8116438,11.4401826 L75.8116438,23.3703957 C75.8116438,27.9555556 73.5792237,29.8611111 70.7805175,29.8611111 C67.8627093,29.8611111 65.6898782,27.8365297 65.6898782,23.3703957 L65.6898782,9.68645358 L59.9821157,11.4055556 L59.9821157,23.3703957 C59.9821157,31.6475647 65.008828,35.3394977 70.1894216,35.3394977 C72.3926941,35.3394977 74.2895738,34.7439878 75.8116438,33.6721461 L75.8116438,38.0191781 C75.8116438,42.12793 74.1034247,44.8193303 70.5901826,44.8193303 C66.7870624,44.8193303 65.0782344,41.7712329 65.0119482,38.6577626 L59.4264079,40.3401065 C60.2540335,46.2817352 64.8555556,50 70.7429224,50 C76.9954338,50 81.5951294,45.6412481 81.5951294,38.0191781 L81.5951294,9.71834094 L75.8116438,11.4401826" id="Fill-10" fill="#FFFFFF"></path>
            </g>
        </g>
    </g>
</svg>