<svg width="119" height="32" viewBox="0 0 119 32" xmlns="http://www.w3.org/2000/svg"><title>Channel Branding / Logos / Waypoint</title><path d="M8.42 20.125c-.345 1.527-.996 2.48-2.49 2.48-.88 0-1.76-.686-2.218-2.403L0 6.16h3.56l2.41 10.15L7.807 8.18C8.19 6.465 9.07 5.97 10.14 5.97c1.11 0 1.953.495 2.335 2.212l1.875 8.127 2.41-10.15h3.56l-3.75 14.042c-.46 1.717-1.3 2.404-2.18 2.404-1.532 0-2.144-.954-2.49-2.48l-1.76-7.976-1.72 7.975zm91.446-6.487v8.777h-3.673v-8.777c0-5.61 3.635-7.67 6.926-7.67 3.328 0 6.964 2.1 6.964 7.67v8.777h-3.674v-8.777c0-2.785-1.34-4.16-3.29-4.16-1.914 0-3.254 1.337-3.254 4.16zm18.362 5.278H119v3.51h-.772c-3.253 0-6.32-1.46-6.32-6.536V1.096L115.528 0v6.14h3.18v3.51h-3.18v6.24c0 1.908.71 3.026 2.7 3.026zM90.73 7.44l3.67-1.106v16.093h-3.67V7.44zM62.637 5.97c4.707 0 8.38 3.738 8.38 8.317 0 4.617-3.6 8.32-8.383 8.32-2.985 0-4.72-1.49-4.72-1.49v9.353l-3.667 1.105V14.402c0-5.495 4.143-8.433 8.39-8.433zM48.72 7.29l3.717-1.102v18.135c0 4.884-2.956 7.677-6.975 7.677-3.783 0-6.74-2.383-7.272-6.19l3.59-1.078c.042 1.995 1.14 3.948 3.584 3.948 2.258 0 3.356-1.724 3.356-4.357v-2.786c-.978.687-2.197 1.07-3.613 1.07-3.33 0-6.56-2.367-6.56-7.67V7.268l3.668-1.103v8.77c0 2.86 1.397 4.158 3.272 4.158 1.798 0 3.233-1.22 3.233-4.16V7.292zm13.925 11.805c2.64 0 4.707-1.984 4.707-4.808 0-2.747-2.066-4.808-4.707-4.808-2.678 0-4.706 2.06-4.706 4.807 0 2.862 2.103 4.808 4.705 4.808zM80.848 5.97c4.592 0 8.342 3.738 8.342 8.317 0 4.617-3.75 8.32-8.342 8.32-4.63 0-8.38-3.703-8.38-8.32 0-4.58 3.75-8.318 8.38-8.318zm0 13.125c2.602 0 4.707-1.984 4.707-4.808S83.45 9.48 80.848 9.48c-2.603 0-4.707 1.983-4.707 4.807 0 2.824 2.105 4.808 4.708 4.808zm-47.732 2.022s-1.722 1.49-4.707 1.49c-4.784 0-8.38-3.703-8.38-8.32 0-4.58 3.673-8.318 8.38-8.318 4.247 0 8.38 2.937 8.38 8.432v8.013h-3.674v-1.298zm-4.707-2.022c2.602 0 4.706-1.946 4.706-4.808 0-2.747-2.028-4.808-4.707-4.808-2.64 0-4.707 2.06-4.707 4.807 0 2.824 2.066 4.808 4.706 4.808z" fill="#FFF" fill-rule="evenodd"/></svg>