<svg xmlns="http://www.w3.org/2000/svg" viewBox="0 0 610.4 47.6"><path d="M17 15c2 0 3.5-1.1 3.5-3.4 0-2.2-1.5-3.3-3.6-3.3h-6.5V15H17zM0 0h18.9c3.6 0 6.3.9 8.3 2.4 2.2 1.8 3.4 4.4 3.4 7.6 0 3.7-1.5 6-4.5 7.4v.2c4 1.3 6.3 4.9 6.3 9.2 0 4.1-1.6 7.3-4.2 9.3-2.2 1.6-5 2.3-8.8 2.3H0V0zm18 29.9c2.3 0 4-1.4 4-3.9 0-2.7-1.8-3.9-4-3.9h-7.4V30c-.1-.1 7.4-.1 7.4-.1zM34.1 0H44v38.4h-9.9V0zm30.5 24.8c0-4.8-1.5-7.8-4.5-7.8s-4.4 3-4.4 7.8 1.4 7.9 4.4 7.9c3-.1 4.5-3.1 4.5-7.9zm-18.6 0c0-8.7 5.6-14.5 14.3-14.5s14.2 5.9 14.2 14.5c0 8.7-5.5 14.5-14.2 14.5S46 33.5 46 24.8zm48.2 0c0-4.8-1.5-7.8-4.5-7.8s-4.4 3-4.4 7.8 1.4 7.9 4.4 7.9c3-.1 4.5-3.1 4.5-7.9zm-18.6 0c0-8.7 5.6-14.5 14.3-14.5S104 16.1 104 24.8s-5.5 14.5-14.2 14.5c-8.6 0-14.2-5.8-14.2-14.5zM106 11h9.2v4.1h.2c1.8-3.2 4.3-4.9 8.3-4.9 3.5 0 6.1 1.7 7.4 4.7h.2c2.2-3.6 5.1-4.7 8.5-4.7 6.4 0 9.1 4.7 9.1 11v17.2h-9.6V22.9c0-2.8-.9-4.6-3.3-4.6s-3.6 2.2-3.6 5.2v14.9h-9.6V22.9c0-2.8-.9-4.6-3.3-4.6s-3.6 2.2-3.6 5.2v14.9H106V11zm64.3 13.6c0-4.4-1.6-7.3-4.5-7.3-3 0-4.8 2.9-4.8 7.3s1.9 7.3 4.8 7.3 4.5-2.9 4.5-7.3zM161 34.9h-.1v3.6h-9.2V0h9.6v13.9h.2c1.8-2.4 4.3-3.7 7.8-3.7 6.9 0 10.9 6.2 10.9 14.5 0 9.3-4.3 14.7-11.5 14.7-3 0-6.1-1.5-7.7-4.5zm29.9-13.1h8.8c-.2-3.3-2-5-4.3-5-2.7 0-4.2 1.9-4.5 5zm-9.6 2.9c0-8.6 5.7-14.5 13.9-14.5 4.1 0 7.2 1.3 9.6 3.6 3.2 3.1 4.6 7.9 4.5 13.5h-18.4c.4 3.4 2 5.2 4.9 5.2 1.7 0 3.2-.8 3.8-2.6h9.3c-1.6 6.3-6.5 9.4-13.4 9.4-8.5-.1-14.2-5.8-14.2-14.6zm38.9-9h.2c2-3.8 4.6-5.3 7.9-5.3.8 0 1.3.1 1.6.3v8.4h-.2c-5.7-1-9 1.7-9 7.9v11.5H211V11h9.2v4.7zm28.5 8c0-3.4-1.6-6.2-4.4-6.2-2.7 0-4.4 2.4-4.4 6.2 0 3.7 1.7 6.3 4.4 6.3s4.4-2.7 4.4-6.3zm-17.8 14.8h9.3c.4 1.2 1.6 2.3 3.9 2.3 3.1 0 4.2-1.9 4.2-4.8v-2h-.2c-1.5 1.8-3.6 3.1-6.6 3.1-5.9 0-11.1-4.4-11.1-13 0-7.9 4.2-14 10.6-14 3.7 0 5.9 1.5 7.4 3.8h.2v-3h9.2v23.8c0 4.4-1.5 7.8-3.8 9.8-2.4 2.1-5.8 3-9.7 3-7.4.1-12.5-2.9-13.4-9zM287.8 15c2 0 3.5-1.1 3.5-3.4 0-2.2-1.5-3.3-3.6-3.3h-6.5V15h6.6zm-17-15h18.9c3.6 0 6.3.9 8.3 2.4 2.2 1.8 3.4 4.4 3.4 7.6 0 3.7-1.5 6-4.5 7.4v.2c4 1.3 6.3 4.9 6.3 9.2 0 4.1-1.6 7.3-4.2 9.3-2.2 1.6-5 2.3-8.8 2.3H271V0zm18 29.9c2.3 0 4-1.4 4-3.9 0-2.7-1.8-3.9-4-3.9h-7.4V30c-.1-.1 7.4-.1 7.4-.1zm33.4 8.6v-3.6h-.2c-2 2.9-4.5 4.4-8.1 4.4-6.2 0-9.3-4.3-9.3-10.6V11h9.6v15.6c0 3.1 1.2 4.3 3.5 4.3 2.5 0 4-1.7 4-4.8V11h9.6v27.4l-9.1.1zm11-8.7h8.9c.2 2.3 1.5 3.5 3.9 3.5 1.9 0 3.5-.5 3.5-2.4 0-2.3-2.7-2.4-5.9-3-4.9-.8-10-2.2-10-8.7 0-6.1 5.5-9.1 11.8-9.1 7.9 0 12 3.1 12.4 8.5h-9.1c-.3-2-1.8-2.6-3.4-2.6-1.4 0-2.8.6-2.8 2 0 1.6 2.1 2 5.4 2.5 4.7.8 10.8 1.7 10.8 9.3 0 6.6-5.7 9.4-12.8 9.4-7.6.2-12.6-3.1-12.7-9.4zm27.5-28.7h9.6v7.7h-9.6V1.1zm0 9.9h9.6v27.4h-9.6V11zm21.6 3.8h.2c2.1-3 4.7-4.6 8.4-4.6 6 0 9.1 4.2 9.1 10.5v17.7h-9.6V22.9c0-3.1-1.1-4.7-3.6-4.7-2.4 0-3.9 2-3.9 5.2v15h-9.6V11h9.2l-.2 3.8zm29.1 7h8.8c-.2-3.3-2-5-4.3-5-2.7 0-4.2 1.9-4.5 5zm-9.6 2.9c0-8.6 5.7-14.5 13.9-14.5 4.1 0 7.2 1.3 9.6 3.6 3.2 3.1 4.6 7.9 4.5 13.5h-18.4c.4 3.4 2 5.2 4.9 5.2 1.7 0 3.2-.8 3.8-2.6h9.3c-1.6 6.3-6.5 9.4-13.4 9.4-8.5-.1-14.2-5.8-14.2-14.6zm28.7 5.1h8.9c.2 2.3 1.5 3.5 3.9 3.5 1.9 0 3.5-.5 3.5-2.4 0-2.3-2.7-2.4-5.9-3-4.9-.8-10-2.2-10-8.7 0-6.1 5.5-9.1 11.8-9.1 7.9 0 12 3.1 12.4 8.5H446c-.3-2-1.8-2.6-3.4-2.6-1.4 0-2.8.6-2.8 2 0 1.6 2.1 2 5.4 2.5 4.7.8 10.8 1.7 10.8 9.3 0 6.6-5.7 9.4-12.8 9.4-7.6.2-12.6-3.1-12.7-9.4zm26.5 0h8.9c.2 2.3 1.5 3.5 3.9 3.5 1.9 0 3.5-.5 3.5-2.4 0-2.3-2.7-2.4-5.9-3-4.9-.8-10-2.2-10-8.7 0-6.1 5.5-9.1 11.8-9.1 7.9 0 12 3.1 12.4 8.5h-9.1c-.3-2-1.8-2.6-3.4-2.6-1.4 0-2.8.6-2.8 2 0 1.6 2.1 2 5.4 2.5 4.7.8 10.8 1.7 10.8 9.3 0 6.6-5.7 9.4-12.8 9.4-7.6.2-12.6-3.1-12.7-9.4zM481.4 11h9.8l3.7 15h.1l3.5-15h8.4l3.5 15.1h.1l3.7-15.1h9.6l-8.3 27.4h-9.3l-3.7-16h-.1l-3.7 16h-9.1L481.4 11zm50.5 10.8h8.8c-.2-3.3-2-5-4.3-5-2.6 0-4.1 1.9-4.5 5zm-9.6 2.9c0-8.6 5.7-14.5 13.9-14.5 4.1 0 7.2 1.3 9.6 3.6 3.2 3.1 4.6 7.9 4.5 13.5h-18.4c.4 3.4 2 5.2 4.9 5.2 1.7 0 3.2-.8 3.8-2.6h9.3c-1.6 6.3-6.5 9.4-13.4 9.4-8.5-.1-14.2-5.8-14.2-14.6zm38.8-2.9h8.8c-.2-3.3-2-5-4.3-5-2.7 0-4.2 1.9-4.5 5zm-9.6 2.9c0-8.6 5.7-14.5 13.9-14.5 4.1 0 7.2 1.3 9.6 3.6 3.2 3.1 4.6 7.9 4.5 13.5h-18.4c.4 3.4 2 5.2 4.9 5.2 1.7 0 3.2-.8 3.8-2.6h9.3c-1.6 6.3-6.5 9.4-13.4 9.4-8.5-.1-14.2-5.8-14.2-14.6zm41.6 3.6l-1.9 2.2v8h-9.6V0h9.6v19.8l6.7-8.8h10.4l-8.7 10.1 9.7 17.3h-10.8l-5.4-10.1z"/></svg>