<svg width="247" height="201" viewBox="0 0 247 201" xmlns="http://www.w3.org/2000/svg"><title>twitter</title><path d="M246.2 23.6c-1.6 2.6-3.4 5-5.3 7.5s-4 4.7-6.2 7c-2.2 2.2-4.5 4.3-6.7 6.2-2.2 1.9-4.6 3.8-7.2 5.8 0 1 .1 2 .2 3.1.2 1.1.2 2.3.2 3.6 0 16.7-3.1 33.5-9.4 50.5-6.3 17-15.5 32.4-27.6 46.2-12.2 13.8-27.2 25-45.2 33.7-17.9 8.7-38.5 13-61.5 13-7.1 0-14-.5-20.9-1.4-6.9-.9-13.5-2.4-20-4.3-6.7-1.9-13.1-4.3-19.2-7.2-6.1-2.9-12-6.4-17.4-9.9 1.9 0 3.9.1 6 .2 2.1.2 4.1.2 6 .2 6.1 0 11.9-.5 17.5-1.4 5.6-.9 11-2.4 16.1-4.3 5.4-1.6 10.6-3.8 15.4-6.5 4.8-2.7 9.3-5.8 13.5-9.4-5.4 0-10.7-.9-15.6-2.6-5-1.8-9.5-4.2-13.7-7.5-4.2-2.9-7.8-6.5-10.8-10.8-3-4.3-5.4-9.1-7-14.2 1.6.3 3.2.6 4.8.7 1.6.2 3.2.2 4.8.2 2.2 0 4.5-.2 6.7-.5s4.5-.8 6.7-1.4c-5.8-1-11.1-3-16.1-6-5-3-9.2-6.8-12.7-11.3-3.8-4.2-6.8-9.1-8.9-14.7-2.1-5.6-3.1-11.5-3.1-17.5v-.5c1.9 1 3.8 1.8 5.5 2.6 1.8.8 3.6 1.5 5.5 2.2 1.9.3 3.9.6 6 1s4.1.5 6 .5c-3.2-2.2-6.2-4.9-9.1-7.9-2.9-3-5.3-6.3-7.2-9.9-1.9-3.5-3.4-7.4-4.6-11.5C10.5 43 10 38.8 10 34.6c0-2.2.2-4.5.5-6.7s.8-4.5 1.4-6.7c.6-1.9 1.4-3.9 2.2-6 .8-2.1 1.8-4.1 3.1-6 6.1 7.7 13 14.7 20.7 20.9 7.7 6.2 16 11.6 25 16.1 8.7 4.8 17.9 8.5 27.6 11.1 9.8 2.6 20 4.2 30.5 4.8-.3-1.9-.6-3.8-.7-5.8-.1-2-.2-3.8-.2-5.8 0-7.1 1.3-13.6 3.8-19.7s6.1-11.4 10.6-15.9c4.8-4.5 10.3-8.1 16.3-10.8 6.1-2.7 12.7-4.1 19.7-4.1 3.5 0 7 .4 10.3 1.2 3.3.8 6.7 1.8 9.9 3.1s6.2 3 8.9 5c2.7 2.1 5.2 4.2 7.5 6.5 2.9-.3 5.8-.9 8.7-1.7 2.9-.8 5.6-1.8 8.2-3.1 2.6-1 5.1-2.1 7.7-3.4 2.6-1.3 5.1-2.6 7.7-3.8-1 2.9-2.2 5.7-3.6 8.4s-3.1 5.2-5 7.5c-1.9 2.6-4 4.8-6.2 6.7-2.2 1.9-4.6 3.7-7.2 5.3 2.6-.3 5-.7 7.5-1.2 2.4-.5 4.9-1 7.5-1.7 2.2-.6 4.6-1.4 7-2.4 2.2-.9 4.5-1.9 6.8-2.8z" fill="#888" fill-rule="evenodd"/></svg>