<?xml version="1.0" encoding="utf-8"?>
<!-- Generator: Adobe Illustrator 19.2.1, SVG Export Plug-In . SVG Version: 6.00 Build 0)  -->
<svg version="1.1" id="Layer_1" xmlns="http://www.w3.org/2000/svg" xmlns:xlink="http://www.w3.org/1999/xlink" x="0px" y="0px"
	 viewBox="0 0 421.7 146" enable-background="new 0 0 421.7 146" xml:space="preserve">
<g>
	<path fill="#A3A5A8" d="M0,113.3c5.4,0,10.7,0,16.1,0c0.4,2.2,0.5,4.2,1,6.2c2.2,8.6,9.4,12.5,17.4,12c2.6-0.2,5.3-1,7.5-2.2
		c7.7-4.3,8.1-15,0.7-19.8c-3.1-2-6.8-3.1-10.3-4.6c-5.8-2.5-11.7-4.6-17.3-7.5C-1.1,88.7-1.2,64.4,16,55
		c12.6-6.9,29.6-4.7,38.9,5.4c3.6,3.9,5.8,8.5,6.8,13.7c0.6,3.4-1.6,6.1-5,6.1c-3.5,0-7,0-10.7,0c-0.2-1.6-0.3-3.1-0.7-4.6
		c-1.6-7.3-7.5-11.2-15-10.1c-1.9,0.3-3.8,0.8-5.5,1.7c-6.2,3.2-7.4,11.5-2.1,16c2.8,2.3,6.3,3.8,9.7,5.3c6,2.7,12.2,4.8,18.1,7.7
		c6,3,10.8,7.5,12.9,14.2c3.1,9.9-0.7,22-9,28.5c-11.7,9.2-30.9,9.3-42.7,0.2c-6.3-4.9-9.9-11.4-11.3-19.3c-0.1-0.6-0.3-1.3-0.4-1.9
		C0,116.5,0,114.9,0,113.3z"/>
	<path fill="#2FC5F4" d="M421.7,24.4c-0.4,1.8-0.7,3.6-1.2,5.4c-3,10.3-12.5,16.7-23.2,16.2c-10.3-0.4-21.1-8.5-21.8-21.7
		c-0.7-14,10.5-24.2,22.6-24.3c11.6-0.2,22.1,9,23.1,20.5c0,0.5,0.2,1,0.4,1.5C421.7,22.8,421.7,23.6,421.7,24.4z"/>
	<path fill="#2FC5F4" d="M421.7,73.8c-0.4,1.8-0.7,3.6-1.2,5.4c-3.1,10.7-12.3,17-23.9,16.5c-9.6-0.4-18.7-8.4-20.6-18.4
		c-2.5-12.6,5.3-25.4,19-27.3c14.5-2,25.1,8,26.3,19.9c0.1,0.5,0.3,1,0.4,1.5C421.7,72.3,421.7,73,421.7,73.8z"/>
	<path fill="#2FC5F4" d="M421.7,126.1c-0.9,3.6-2,7.1-4.2,10.1c-5.5,7.6-15.3,11.2-24.8,9c-8.9-2.1-15.9-9.5-17.1-18.8
		c-1.9-14.7,8.7-24.7,19.7-26.3c12.5-1.7,24.3,7.3,26.1,18.8c0,0.2,0.2,0.3,0.3,0.4C421.7,121.5,421.7,123.8,421.7,126.1z
		 M382.2,122.9c0,9.2,7,16.2,16.2,16.3c9,0.1,16.5-7.2,16.5-16.1c0-9.2-7.3-16.6-16.5-16.6C389.4,106.5,382.2,113.8,382.2,122.9z"/>
	<path fill="#A3A5A8" d="M107.5,146c-19.4,0-34.1-14.6-34.1-33.9c0-19.3,14.7-34.1,33.9-34.2c19.6,0,34.5,14.7,34.4,34.1
		C141.8,131.5,127.1,146,107.5,146z M107.7,131.4c7.6-0.1,13.6-4.3,16.4-11.4c1.6-4,1.8-8.1,1.1-12.3c-2.2-13.6-18-19.9-28.6-11.4
		c-5.6,4.5-7.3,10.7-6.9,17.6C90.2,124,98.1,131.6,107.7,131.4z"/>
	<path fill="#A3A5A8" d="M209.2,52c0,3.6,0.1,7,0,10.4c-0.2,2.7-2.4,4.4-5.5,4.4c-6.6,0-13.2,0-19.7,0c-4.7,0-9.4,0-14.1,0
		c-0.7,0-1.4,0-2.2,0c0,7.7,0,15.2,0,23c5.9,0,11.7,0,17.6,0c5.8,0,11.7,0,17.7,0c0,3.3,0.3,6.4-0.1,9.4c-0.4,3.3-3.4,5.3-7.4,5.3
		c-8.5,0-17,0-25.5,0c-0.7,0-1.4,0-2.4,0c0,0.8,0,1.6,0,2.3c0,10,0,19.9,0,29.9c0,5.1-2.6,7.7-7.7,7.7c-2.4,0-4.8,0-7.5,0
		c0-0.9,0-1.7,0-2.6c0-28.1,0-56.2,0-84.3c0-4,1.5-5.5,5.5-5.5c14.3,0,28.6,0,42.8,0C203.4,52,206.2,52,209.2,52z"/>
	<path fill="#2FC5F4" d="M271.9,122.4c0-12.5,10.3-22.6,23.1-22.6c12.7,0,23.1,10.5,23.1,23.2c0,12.3-10.8,23-23.3,22.9
		C282,145.8,271.9,135.4,271.9,122.4z"/>
	<path fill="#2FC5F4" d="M323.6,122.7c0.1-13,10.3-23,23.6-23c12.2,0.1,22.7,10.7,22.7,23c0,12.5-10.9,23.2-23.3,23.1
		C333.9,145.7,323.5,135.2,323.6,122.7z"/>
	<path fill="#2FC5F4" d="M295.1,49.9c11.9-0.4,23.1,9.8,23,23.2c-0.2,13.1-11.7,23.2-24,22.8c-12-0.4-22.6-10.7-22.3-24
		C272.1,59.4,282.8,49.5,295.1,49.9z"/>
	<path fill="#2FC5F4" d="M346.4,46c-12.1,0.3-23.2-10.2-22.8-23.7C324.1,10.2,334.6-0.5,348,0c11.7,0.5,21.7,10.9,21.6,23.4
		C369.5,36.4,359.5,46.1,346.4,46z"/>
	<path fill="#A3A5A8" d="M236.4,80.3c0,0.9,0,1.7,0,2.4c0,18.5,0,36.9,0,55.4c0,4.4-1.9,6.3-6.3,6.3c-2.9,0-5.7,0-8.6,0
		c-0.1,0-0.3-0.1-0.7-0.2c0-0.6,0-1.3,0-2c0-18.7,0-37.5,0-56.2c0-3.7,2-5.7,5.6-5.7C229.7,80.2,232.9,80.3,236.4,80.3z"/>
	<path fill="#A3A5A8" d="M346.5,49.9c12.9,0,23.3,10.2,23.3,22.9c0,12.6-10.3,22.9-23.2,22.9c-13.1,0-23.3-10-23.2-22.9
		C323.5,60.1,333.7,50,346.5,49.9z M346.3,88.8c8.7,0.2,16.2-6.7,16.5-15c0.3-9.4-6.8-16.8-16-17c-8.7-0.2-16.1,7-16.3,15.7
		C330.3,81.5,337.2,88.5,346.3,88.8z"/>
	<path fill="#2FC5F4" d="M271.8,23.1c0-12.4,10.1-22.7,22.1-23c13.1-0.4,24,10.2,24.2,22.4c0.3,13.2-10.4,23.1-22.5,23.5
		C282.7,46.4,271.6,36.3,271.8,23.1z M278.6,23c0,9.2,6.9,16.2,16.2,16.2c9.2,0,16.4-6.9,16.6-15.7c0.2-9.1-7.4-16.8-16.5-16.7
		C285.7,6.9,278.6,13.9,278.6,23z"/>
	<path fill="#A3A5A8" d="M228.8,50.2c5.4,0.1,9.9,4.6,9.8,9.9c-0.1,5.5-4.6,9.8-10.2,9.7c-5.4-0.1-9.7-4.6-9.5-10.1
		C219,54.5,223.5,50.2,228.8,50.2z"/>
</g>
</svg>
