<?xml version="1.0" encoding="utf-8"?>
<!-- Generator: Adobe Illustrator 17.1.0, SVG Export Plug-In . SVG Version: 6.00 Build 0)  -->
<!DOCTYPE svg PUBLIC "-//W3C//DTD SVG 1.1//EN" "http://www.w3.org/Graphics/SVG/1.1/DTD/svg11.dtd">
<svg version="1.1" id="Layer_1" xmlns="http://www.w3.org/2000/svg" xmlns:xlink="http://www.w3.org/1999/xlink" x="0px" y="0px"
	 viewBox="77 259 470.5 222.3" enable-background="new 0 0 612 792" xml:space="preserve">
<g>
	<rect x="77.8" y="259" fill="#E31837" width="470.5" height="222.3"/>
	<g>
		<path fill="#FFFFFF" d="M231.5,278.4h51.8c41.3,0,61.5,24.1,61.5,53.7c0,31-20.2,57.5-61.5,57.5h-28.5v73.1h-23.3V278.4z
			 M254.8,299.3v69.4h28.3c27.3,0,38.7-15.5,38.7-36.6c0-19.8-11.4-32.8-38.7-32.8H254.8z"/>
		<path fill="#FFFFFF" d="M355.6,278.4h23.3v184.4h-23.3V278.4z"/>
		<path fill="#FFFFFF" d="M398.5,278.4h21.2L503.2,415V278.4H526v184.4h-20.9l-83.9-136.4v136.4h-22.8V278.4z"/>
		<path fill="#FFFFFF" d="M101.4,326.1c0-29.2,23-50.9,58.4-50.9c40,0,53.9,27.2,58.7,43.3l-20.8,7.4c-2.6-8.2-10.4-30.8-37.9-30.8
			c-18.2,0-34.8,9.1-34.8,29.7c0,26.7,30.1,28.8,56.4,38.1c22.1,7.2,38.7,21.3,38.7,49.3c0,31.1-22.8,53.9-61.6,53.9
			c-44.8,0-57.2-33.2-63.4-50.7l21-5.9c3.4,10,13.3,36.7,42.4,36.7c22,0,38.1-10.7,38.1-33c0-27.7-29.8-30.3-56-39.2
			C120.1,367.9,101.4,354,101.4,326.1z"/>
	</g>
</g>
</svg>
